<svg width="143" height="143" viewBox="0 0 143 143" fill="none" xmlns="http://www.w3.org/2000/svg">
<mask id="path-1-outside-1_945_56" maskUnits="userSpaceOnUse" x="0" y="0" width="143" height="143" fill="black">
<rect fill="white" width="143" height="143"/>
<path fill-rule="evenodd" clip-rule="evenodd" d="M66.6392 141.834C68.2455 141.944 69.8664 142 71.5 142C73.121 142 74.7294 141.945 76.3234 141.837C76.3554 141.841 76.3879 141.844 76.4204 141.844H76.4242C76.4886 141.844 76.5531 141.835 76.6158 141.816C79.1983 141.63 81.7428 141.304 84.2416 140.846C84.2567 140.848 84.2719 140.849 84.2872 140.849L84.298 140.85L84.3113 140.85C84.3608 140.85 84.4141 140.842 84.4636 140.831L84.4768 140.828C84.6096 140.797 84.7464 140.765 84.8871 140.733L85.089 140.685C106.596 136.468 124.63 122.437 134.321 103.464L134.352 103.422L134.38 103.383C134.434 103.306 134.47 103.221 134.489 103.134C138.542 95.0961 141.1 86.1814 141.798 76.7573C141.932 76.1889 142 75.6156 142 75.0383C142 74.9229 141.971 74.8145 141.92 74.72C141.968 73.6526 141.992 72.5791 141.992 71.5C141.992 62.5149 140.303 53.9168 137.225 46.0069C137.22 45.9818 137.214 45.9568 137.209 45.9318C137.189 45.8346 137.148 45.747 137.093 45.6723C133.572 36.7593 128.284 28.7297 121.664 22.0178C121.601 21.8947 121.503 21.7996 121.387 21.7387C114.852 15.1856 107.039 9.90817 98.3573 6.31704C98.2694 6.25235 98.169 6.2124 98.0654 6.19705C89.8627 2.84706 80.8929 1 71.5 1C61.9555 1 52.8477 2.90722 44.5377 6.36058C44.3838 6.36718 44.2323 6.42687 44.1125 6.53895C35.6461 10.1229 28.0198 15.3159 21.6191 21.7323C21.4939 21.7953 21.3874 21.8982 21.3205 22.0335C14.7904 28.6582 9.55784 36.5654 6.03972 45.3381C5.95868 45.4194 5.89758 45.5228 5.86706 45.6424C5.83965 45.7491 5.81483 45.8559 5.79263 45.9629C2.70358 53.8849 1.00766 62.4982 1.00766 71.5C1.00766 72.5791 1.03203 73.6525 1.08024 74.7199C1.02904 74.8144 1 74.9228 1 75.0383C1 75.6157 1.06763 76.1892 1.2017 76.7578C1.89946 86.1776 4.45643 95.0885 8.50596 103.124C8.52396 103.213 8.56056 103.3 8.61668 103.379C8.63821 103.41 8.65986 103.44 8.68166 103.47C12.5317 111.006 17.6982 117.762 23.8756 123.432C23.9086 123.49 23.9508 123.544 24.0024 123.592C24.4945 124.047 25.0153 124.495 25.5633 124.933C34.5484 132.67 45.4988 138.185 57.5523 140.614C57.8798 140.692 58.1894 140.764 58.4793 140.831C58.5326 140.846 58.5821 140.85 58.6316 140.85L58.6354 140.846C58.6654 140.846 58.6951 140.844 58.7243 140.84C61.213 141.297 63.747 141.624 66.3188 141.812C66.3853 141.833 66.4544 141.844 66.5225 141.844H66.5263C66.5642 141.844 66.602 141.841 66.6392 141.834ZM46.2619 135.899C42.9828 134.61 39.8252 133.076 36.8115 131.322C38.8638 132.171 41.0398 132.949 43.3141 133.648C44.2948 134.497 45.2821 135.243 46.2619 135.899ZM29.2755 125.959C32.5958 128.1 36.6173 129.983 41.1105 131.539C37.8886 128.142 34.8584 123.455 32.5447 116.931C26.6997 115.24 21.5803 113.172 17.4489 110.806C21.3092 119.051 25.3228 122.531 28.8948 125.629L28.8961 125.63L29.0237 125.741L29.0244 125.741L29.0258 125.743L29.2755 125.959ZM57.9567 139.336C55.0102 138.64 50.8585 137.507 46.6276 134.59C51.518 135.875 56.7773 136.804 62.1791 137.309C62.9721 138.582 63.7689 139.563 64.5071 140.316C62.2914 140.093 60.1063 139.764 57.9567 139.336ZM43.8929 132.442C49.2708 134.077 55.2118 135.262 61.3665 135.892C59.6893 132.72 58.1284 128.107 57.2987 121.425L57.2895 121.351C48.8995 120.62 41.0432 119.254 34.128 117.375C36.79 124.489 40.2814 129.228 43.8929 132.442ZM58.6499 121.464C59.5396 128.463 61.2287 133.05 62.9673 136.043C65.7844 136.286 68.6397 136.413 71.5 136.413C74.3632 136.413 77.1896 136.3 79.9561 136.081C81.7015 133.089 83.4006 128.495 84.2962 121.468C80.1383 121.792 75.8567 121.962 71.5 121.962C67.1244 121.962 62.8246 121.791 58.6499 121.464ZM71.5 137.746C68.9448 137.746 66.3926 137.645 63.8661 137.452C64.9066 138.934 65.9184 139.892 66.7394 140.505C68.3126 140.612 69.9 140.667 71.5 140.667C73.0801 140.667 74.648 140.614 76.202 140.509C77.0181 139.901 78.0231 138.95 79.0576 137.483C76.5766 137.657 74.052 137.746 71.5 137.746ZM78.4322 140.322C79.1633 139.577 79.9525 138.607 80.7387 137.352C86.0905 136.892 91.2191 136.038 95.9591 134.837C91.7656 137.633 87.6818 138.708 84.8091 139.382C82.7154 139.792 80.5882 140.107 78.4322 140.322ZM96.5996 135.954C97.5057 135.351 98.4185 134.672 99.327 133.906C101.449 133.267 103.478 132.556 105.397 131.776C102.58 133.366 99.6421 134.765 96.5996 135.954ZM101.597 131.785C106.295 130.169 110.437 128.169 113.805 125.847L113.898 125.767L114.047 125.638L114.048 125.636C117.616 122.543 121.624 119.067 125.48 110.844C121.346 113.202 116.23 115.262 110.392 116.947C108.023 123.622 104.904 128.372 101.597 131.785ZM81.552 135.942C87.7059 135.36 93.5353 134.25 98.7772 132.688C102.485 129.473 106.086 124.678 108.815 117.389C101.899 119.264 94.0436 120.627 85.6566 121.355L85.648 121.425C84.8139 128.142 83.2399 132.768 81.552 135.942ZM12.3583 107.324C14.3022 110.522 16.4981 113.551 18.9181 116.382C17.7491 114.482 16.5818 112.25 15.4312 109.575C14.315 108.849 13.2885 108.098 12.3583 107.324ZM32.0282 115.423C25.8741 113.585 20.5941 111.32 16.5215 108.724C13.2951 101.129 11.3385 93.6911 10.6495 86.336C13.7227 87.9765 17.4966 89.4954 21.923 90.8561C23.8737 91.4559 25.9187 92.0161 28.0477 92.5352C28.1734 99.8484 29.3148 107.263 32.0282 115.423ZM57.1254 120.004C48.547 119.247 40.5523 117.827 33.5914 115.876C30.7619 107.655 29.5551 100.203 29.3948 92.8557C32.3728 93.5465 35.5057 94.1592 38.7667 94.6903C38.3982 94.1896 38.041 93.6801 37.6956 93.162C34.809 92.6676 32.0296 92.1078 29.3769 91.4849C29.3502 85.4084 30.0169 79.3759 31.0496 73.0103C31.0167 72.3444 31 71.6741 31 71C31 64.7891 32.4156 58.9088 34.9416 53.6642C36.6941 46.7285 38.7034 40.8027 40.9058 35.7105C43.6036 36.2837 46.5172 36.7813 49.6108 37.193C50.2188 36.8075 50.838 36.438 51.4677 36.085C47.8439 35.6464 44.4965 35.0952 41.4599 34.4558C45.5399 25.4074 50.2464 19.09 55.1917 14.4291C58.1549 14.9423 61.466 15.3027 64.8774 15.5041C63.5697 19.73 62.2891 25.1415 61.0614 32.2444C61.5257 32.1257 61.9933 32.0151 62.464 31.9128C63.6824 24.9511 64.9493 19.6766 66.2401 15.5759C67.9361 15.6545 69.6486 15.6942 71.3477 15.6942C73.1298 15.6942 74.9266 15.6505 76.7037 15.5641C78.0097 19.711 79.2912 25.0592 80.5229 32.1405C80.996 32.2561 81.4659 32.38 81.9323 32.5122C80.6894 25.2689 79.3919 19.7701 78.0663 15.4891C81.4702 15.2801 84.7679 14.9127 87.7124 14.3926C92.6736 19.0585 97.3957 25.388 101.488 34.4652C98.235 35.1485 94.6263 35.7307 90.7041 36.1818C91.3326 36.5382 91.9505 36.9112 92.5572 37.3001C95.9414 36.8708 99.1181 36.3398 102.042 35.72C104.89 42.3057 107.415 50.2853 109.48 60.04C110.073 62.1273 110.501 64.2842 110.749 66.4955C112.406 75.3488 113.606 83.3829 113.57 91.4961C110.59 92.1941 107.45 92.8129 104.179 93.3489C103.831 93.8649 103.471 94.3723 103.1 94.8708C106.75 94.3026 110.246 93.6335 113.552 92.8681C113.39 100.215 112.182 107.669 109.351 115.893C102.389 117.84 94.396 119.256 85.8205 120.009C86.3342 115.711 86.7279 111.655 87.003 107.67C86.5475 107.869 86.0876 108.06 85.6235 108.243C85.3468 112.077 84.9599 115.986 84.4615 120.123C80.2563 120.455 75.9185 120.629 71.5 120.629C67.0628 120.629 62.7068 120.454 58.4846 120.118C58.0024 116.116 57.6245 112.326 57.3499 108.61C56.8862 108.442 56.4264 108.265 55.9708 108.081C56.2444 111.932 56.6288 115.856 57.1254 120.004ZM126.404 108.771C122.328 111.357 117.052 113.613 110.908 115.443C113.625 107.28 114.769 99.8636 114.896 92.5489C117.045 92.0259 119.109 91.4612 121.077 90.8561C125.475 89.5042 129.229 87.996 132.291 86.3676C131.599 93.7278 129.637 101.171 126.404 108.771ZM127.491 109.623C126.299 112.388 125.09 114.678 123.879 116.619C126.381 113.718 128.646 110.608 130.645 107.319C129.692 108.111 128.639 108.88 127.491 109.623ZM133.183 102.764C131.996 104.39 130.388 105.94 128.414 107.399C131.364 100.008 133.127 92.7575 133.703 85.5799C136.564 83.9019 138.716 82.1075 140.111 80.2336C139.097 88.2486 136.706 95.8406 133.183 102.764ZM14.5054 107.339C12.5691 105.899 10.9905 104.371 9.81977 102.769C6.29564 95.8444 3.90366 88.2507 2.8892 80.2337C4.27406 82.0945 6.40599 83.8768 9.2376 85.5447C9.80906 92.7144 11.5643 99.9572 14.5054 107.339ZM81.25 3.01815C86.958 3.82709 92.4441 5.33559 97.6183 7.45381C97.9283 7.79408 98.086 8.12158 98.086 8.43087C98.086 9.3719 96.8521 10.3485 94.6179 11.231C87.7377 7.37368 80.8341 5.1181 74.3685 3.21758C75.827 3.09679 77.5461 3.07718 79.0367 3.06053L79.416 3.05532C80.0817 3.04632 80.7057 3.03788 81.2379 3.01864L81.25 3.01815ZM99.4189 8.43087C99.4189 9.82698 98.153 11.0327 96.0178 12.0386C102.707 16.0089 109.345 21.5758 115.505 29.8877C118.964 28.0688 120.841 26.0822 120.841 24.1382C120.841 23.6897 120.745 23.2382 120.554 22.789C114.513 16.7045 107.352 11.7339 99.409 8.21663C99.4156 8.28777 99.4189 8.35919 99.4189 8.43087ZM78.3386 5.8202C83.0783 7.33765 87.9905 9.18475 92.9022 11.829C91.5517 12.2472 89.9621 12.634 88.163 12.973C84.8723 9.9271 81.5517 7.65536 78.3386 5.8202ZM94.4472 12.6877C92.9809 13.2232 91.2476 13.6894 89.327 14.0847C90.6255 15.364 91.9168 16.7708 93.1923 18.326C96.8482 22.7817 100.04 28.0444 102.794 34.1812C107.456 33.1321 111.328 31.8714 114.276 30.4962C108.008 22.1102 101.245 16.5878 94.4472 12.6877ZM73.4214 4.7483C77.7604 6.8872 82.1934 9.49957 86.4749 13.2668C83.8753 13.6839 80.9093 14.0045 77.6503 14.1879C76.2582 9.97058 74.8385 7.02496 73.4214 4.7483ZM71.3477 14.3611C73.0494 14.3611 74.6954 14.3247 76.2779 14.2562C74.6929 9.55007 73.0764 6.51571 71.4735 4.21335C69.8696 6.51816 68.2521 9.5554 66.6662 14.2666C68.1722 14.3284 69.7349 14.3611 71.3477 14.3611ZM69.5283 4.74492C68.1097 7.02448 66.6879 9.97479 65.2936 14.2014C62.0248 14.0251 59.0463 13.7109 56.431 13.2993C60.7261 9.51265 65.1747 6.89063 69.5283 4.74492ZM64.6208 5.80979C61.3889 7.65427 58.0487 9.93992 54.739 13.0104C52.9224 12.6746 51.3144 12.2903 49.9449 11.874C54.8942 9.19935 59.8452 7.33739 64.6208 5.80979ZM53.5733 14.1264C51.6341 13.7352 49.8806 13.2724 48.3929 12.74C41.6324 16.6345 34.9096 22.1399 28.676 30.4771C31.6189 31.8554 35.4909 33.1193 40.1547 34.1714C42.9074 28.0387 46.0967 22.7794 49.7506 18.326C51.0123 16.7877 52.2892 15.3946 53.5733 14.1264ZM68.5537 3.21968C62.0607 5.12844 55.1275 7.39639 48.2206 11.2851C45.896 10.3881 44.6093 9.3905 44.6093 8.43087C44.6093 8.18037 44.7123 7.917 44.9161 7.6471C50.2167 5.43141 55.8498 3.85745 61.7175 3.0229C62.3472 3.04545 63.1041 3.05678 63.9062 3.06434C65.3897 3.08091 67.0996 3.10041 68.5537 3.21968ZM43.2764 8.43087C43.2764 8.40627 43.2768 8.38169 43.2776 8.35714C35.4544 11.8685 28.3974 16.7928 22.4332 22.8031C22.248 23.2476 22.1515 23.6944 22.1515 24.1382C22.1515 26.0752 24.0151 28.0545 27.4499 29.868C33.5722 21.6111 40.1653 16.0646 46.8122 12.1012C44.5957 11.0829 43.2764 9.85608 43.2764 8.43087ZM20.8348 24.4681C14.972 30.7807 10.2709 38.1867 7.07561 46.3421C7.01635 46.6587 6.98671 46.9761 6.98671 47.2916C6.98671 50.1279 9.3979 52.9562 13.853 55.5196C17.7184 45.4207 22.0461 37.3977 26.6546 30.9597C23.0877 29.0293 21.0121 26.8268 20.8348 24.4681ZM27.8676 31.5782C23.2418 37.9936 18.9002 46.0198 15.0312 56.1663C17.874 57.6569 21.423 59.047 25.6019 60.2832C27.5452 60.8578 29.5903 61.3914 31.7254 61.8826C33.7561 51.7174 36.3659 42.9368 39.6037 35.4241C34.9205 34.3585 30.9413 33.0574 27.8676 31.5782ZM103.345 35.4341C106.583 42.948 109.192 51.73 111.221 61.8968C113.378 61.4016 115.444 60.8633 117.406 60.2832C121.557 59.0563 125.087 57.6764 127.92 56.1965C124.052 46.0457 119.71 38.016 115.084 31.5978C112.006 33.0735 108.026 34.3713 103.345 35.4341ZM116.301 30.9798C120.909 37.4208 125.237 45.4475 129.102 55.5506C133.59 52.9792 136.021 50.1388 136.021 47.2916C136.021 46.9886 135.994 46.6856 135.941 46.3826C132.744 38.2074 128.034 30.7841 122.158 24.4591C121.985 26.8294 119.895 29.0421 116.301 30.9798ZM140.66 71.5C140.66 73.1916 140.598 74.8691 140.478 76.5307C139.833 79.0905 137.542 81.6121 133.813 83.9442C134.316 74.8374 132.903 65.8404 129.579 56.8167C133.626 54.5313 136.16 52.0033 137.022 49.3475C139.38 56.3051 140.66 63.756 140.66 71.5ZM128.392 57.457C131.712 66.5358 133.056 75.5915 132.422 84.7684C129.307 86.518 125.363 88.1458 120.685 89.584C118.842 90.1502 116.913 90.6808 114.908 91.1745C114.911 82.1619 113.419 73.2425 111.477 63.2045C113.678 62.7002 115.786 62.1513 117.787 61.5592C121.956 60.3269 125.507 58.9482 128.392 57.457ZM31.4683 63.1927C29.5277 73.2308 28.035 82.15 28.0359 91.162C26.0508 90.6718 24.1411 90.1455 22.3153 89.584C17.6075 88.1365 13.6437 86.4968 10.5194 84.7343C9.88875 75.5597 11.2364 66.5061 14.5577 57.4294C17.4535 58.932 21.0237 60.3212 25.221 61.563C27.2032 62.1489 29.2897 62.6926 31.4683 63.1927ZM13.3748 56.7881C10.0475 65.8074 8.63033 74.8017 9.12754 83.9061C5.43453 81.5847 3.16412 79.0765 2.52158 76.5306C2.40161 74.8691 2.34058 73.1915 2.34058 71.5C2.34058 63.7527 3.62097 56.2987 5.98121 49.3385C6.83622 51.9866 9.35255 54.5073 13.3748 56.7881Z"/>
</mask>
<path fill-rule="evenodd" clip-rule="evenodd" d="M66.6392 141.834C68.2455 141.944 69.8664 142 71.5 142C73.121 142 74.7294 141.945 76.3234 141.837C76.3554 141.841 76.3879 141.844 76.4204 141.844H76.4242C76.4886 141.844 76.5531 141.835 76.6158 141.816C79.1983 141.63 81.7428 141.304 84.2416 140.846C84.2567 140.848 84.2719 140.849 84.2872 140.849L84.298 140.85L84.3113 140.85C84.3608 140.85 84.4141 140.842 84.4636 140.831L84.4768 140.828C84.6096 140.797 84.7464 140.765 84.8871 140.733L85.089 140.685C106.596 136.468 124.63 122.437 134.321 103.464L134.352 103.422L134.38 103.383C134.434 103.306 134.47 103.221 134.489 103.134C138.542 95.0961 141.1 86.1814 141.798 76.7573C141.932 76.1889 142 75.6156 142 75.0383C142 74.9229 141.971 74.8145 141.92 74.72C141.968 73.6526 141.992 72.5791 141.992 71.5C141.992 62.5149 140.303 53.9168 137.225 46.0069C137.22 45.9818 137.214 45.9568 137.209 45.9318C137.189 45.8346 137.148 45.747 137.093 45.6723C133.572 36.7593 128.284 28.7297 121.664 22.0178C121.601 21.8947 121.503 21.7996 121.387 21.7387C114.852 15.1856 107.039 9.90817 98.3573 6.31704C98.2694 6.25235 98.169 6.2124 98.0654 6.19705C89.8627 2.84706 80.8929 1 71.5 1C61.9555 1 52.8477 2.90722 44.5377 6.36058C44.3838 6.36718 44.2323 6.42687 44.1125 6.53895C35.6461 10.1229 28.0198 15.3159 21.6191 21.7323C21.4939 21.7953 21.3874 21.8982 21.3205 22.0335C14.7904 28.6582 9.55784 36.5654 6.03972 45.3381C5.95868 45.4194 5.89758 45.5228 5.86706 45.6424C5.83965 45.7491 5.81483 45.8559 5.79263 45.9629C2.70358 53.8849 1.00766 62.4982 1.00766 71.5C1.00766 72.5791 1.03203 73.6525 1.08024 74.7199C1.02904 74.8144 1 74.9228 1 75.0383C1 75.6157 1.06763 76.1892 1.2017 76.7578C1.89946 86.1776 4.45643 95.0885 8.50596 103.124C8.52396 103.213 8.56056 103.3 8.61668 103.379C8.63821 103.41 8.65986 103.44 8.68166 103.47C12.5317 111.006 17.6982 117.762 23.8756 123.432C23.9086 123.49 23.9508 123.544 24.0024 123.592C24.4945 124.047 25.0153 124.495 25.5633 124.933C34.5484 132.67 45.4988 138.185 57.5523 140.614C57.8798 140.692 58.1894 140.764 58.4793 140.831C58.5326 140.846 58.5821 140.85 58.6316 140.85L58.6354 140.846C58.6654 140.846 58.6951 140.844 58.7243 140.84C61.213 141.297 63.747 141.624 66.3188 141.812C66.3853 141.833 66.4544 141.844 66.5225 141.844H66.5263C66.5642 141.844 66.602 141.841 66.6392 141.834ZM46.2619 135.899C42.9828 134.61 39.8252 133.076 36.8115 131.322C38.8638 132.171 41.0398 132.949 43.3141 133.648C44.2948 134.497 45.2821 135.243 46.2619 135.899ZM29.2755 125.959C32.5958 128.1 36.6173 129.983 41.1105 131.539C37.8886 128.142 34.8584 123.455 32.5447 116.931C26.6997 115.24 21.5803 113.172 17.4489 110.806C21.3092 119.051 25.3228 122.531 28.8948 125.629L28.8961 125.63L29.0237 125.741L29.0244 125.741L29.0258 125.743L29.2755 125.959ZM57.9567 139.336C55.0102 138.64 50.8585 137.507 46.6276 134.59C51.518 135.875 56.7773 136.804 62.1791 137.309C62.9721 138.582 63.7689 139.563 64.5071 140.316C62.2914 140.093 60.1063 139.764 57.9567 139.336ZM43.8929 132.442C49.2708 134.077 55.2118 135.262 61.3665 135.892C59.6893 132.72 58.1284 128.107 57.2987 121.425L57.2895 121.351C48.8995 120.62 41.0432 119.254 34.128 117.375C36.79 124.489 40.2814 129.228 43.8929 132.442ZM58.6499 121.464C59.5396 128.463 61.2287 133.05 62.9673 136.043C65.7844 136.286 68.6397 136.413 71.5 136.413C74.3632 136.413 77.1896 136.3 79.9561 136.081C81.7015 133.089 83.4006 128.495 84.2962 121.468C80.1383 121.792 75.8567 121.962 71.5 121.962C67.1244 121.962 62.8246 121.791 58.6499 121.464ZM71.5 137.746C68.9448 137.746 66.3926 137.645 63.8661 137.452C64.9066 138.934 65.9184 139.892 66.7394 140.505C68.3126 140.612 69.9 140.667 71.5 140.667C73.0801 140.667 74.648 140.614 76.202 140.509C77.0181 139.901 78.0231 138.95 79.0576 137.483C76.5766 137.657 74.052 137.746 71.5 137.746ZM78.4322 140.322C79.1633 139.577 79.9525 138.607 80.7387 137.352C86.0905 136.892 91.2191 136.038 95.9591 134.837C91.7656 137.633 87.6818 138.708 84.8091 139.382C82.7154 139.792 80.5882 140.107 78.4322 140.322ZM96.5996 135.954C97.5057 135.351 98.4185 134.672 99.327 133.906C101.449 133.267 103.478 132.556 105.397 131.776C102.58 133.366 99.6421 134.765 96.5996 135.954ZM101.597 131.785C106.295 130.169 110.437 128.169 113.805 125.847L113.898 125.767L114.047 125.638L114.048 125.636C117.616 122.543 121.624 119.067 125.48 110.844C121.346 113.202 116.23 115.262 110.392 116.947C108.023 123.622 104.904 128.372 101.597 131.785ZM81.552 135.942C87.7059 135.36 93.5353 134.25 98.7772 132.688C102.485 129.473 106.086 124.678 108.815 117.389C101.899 119.264 94.0436 120.627 85.6566 121.355L85.648 121.425C84.8139 128.142 83.2399 132.768 81.552 135.942ZM12.3583 107.324C14.3022 110.522 16.4981 113.551 18.9181 116.382C17.7491 114.482 16.5818 112.25 15.4312 109.575C14.315 108.849 13.2885 108.098 12.3583 107.324ZM32.0282 115.423C25.8741 113.585 20.5941 111.32 16.5215 108.724C13.2951 101.129 11.3385 93.6911 10.6495 86.336C13.7227 87.9765 17.4966 89.4954 21.923 90.8561C23.8737 91.4559 25.9187 92.0161 28.0477 92.5352C28.1734 99.8484 29.3148 107.263 32.0282 115.423ZM57.1254 120.004C48.547 119.247 40.5523 117.827 33.5914 115.876C30.7619 107.655 29.5551 100.203 29.3948 92.8557C32.3728 93.5465 35.5057 94.1592 38.7667 94.6903C38.3982 94.1896 38.041 93.6801 37.6956 93.162C34.809 92.6676 32.0296 92.1078 29.3769 91.4849C29.3502 85.4084 30.0169 79.3759 31.0496 73.0103C31.0167 72.3444 31 71.6741 31 71C31 64.7891 32.4156 58.9088 34.9416 53.6642C36.6941 46.7285 38.7034 40.8027 40.9058 35.7105C43.6036 36.2837 46.5172 36.7813 49.6108 37.193C50.2188 36.8075 50.838 36.438 51.4677 36.085C47.8439 35.6464 44.4965 35.0952 41.4599 34.4558C45.5399 25.4074 50.2464 19.09 55.1917 14.4291C58.1549 14.9423 61.466 15.3027 64.8774 15.5041C63.5697 19.73 62.2891 25.1415 61.0614 32.2444C61.5257 32.1257 61.9933 32.0151 62.464 31.9128C63.6824 24.9511 64.9493 19.6766 66.2401 15.5759C67.9361 15.6545 69.6486 15.6942 71.3477 15.6942C73.1298 15.6942 74.9266 15.6505 76.7037 15.5641C78.0097 19.711 79.2912 25.0592 80.5229 32.1405C80.996 32.2561 81.4659 32.38 81.9323 32.5122C80.6894 25.2689 79.3919 19.7701 78.0663 15.4891C81.4702 15.2801 84.7679 14.9127 87.7124 14.3926C92.6736 19.0585 97.3957 25.388 101.488 34.4652C98.235 35.1485 94.6263 35.7307 90.7041 36.1818C91.3326 36.5382 91.9505 36.9112 92.5572 37.3001C95.9414 36.8708 99.1181 36.3398 102.042 35.72C104.89 42.3057 107.415 50.2853 109.48 60.04C110.073 62.1273 110.501 64.2842 110.749 66.4955C112.406 75.3488 113.606 83.3829 113.57 91.4961C110.59 92.1941 107.45 92.8129 104.179 93.3489C103.831 93.8649 103.471 94.3723 103.1 94.8708C106.75 94.3026 110.246 93.6335 113.552 92.8681C113.39 100.215 112.182 107.669 109.351 115.893C102.389 117.84 94.396 119.256 85.8205 120.009C86.3342 115.711 86.7279 111.655 87.003 107.67C86.5475 107.869 86.0876 108.06 85.6235 108.243C85.3468 112.077 84.9599 115.986 84.4615 120.123C80.2563 120.455 75.9185 120.629 71.5 120.629C67.0628 120.629 62.7068 120.454 58.4846 120.118C58.0024 116.116 57.6245 112.326 57.3499 108.61C56.8862 108.442 56.4264 108.265 55.9708 108.081C56.2444 111.932 56.6288 115.856 57.1254 120.004ZM126.404 108.771C122.328 111.357 117.052 113.613 110.908 115.443C113.625 107.28 114.769 99.8636 114.896 92.5489C117.045 92.0259 119.109 91.4612 121.077 90.8561C125.475 89.5042 129.229 87.996 132.291 86.3676C131.599 93.7278 129.637 101.171 126.404 108.771ZM127.491 109.623C126.299 112.388 125.09 114.678 123.879 116.619C126.381 113.718 128.646 110.608 130.645 107.319C129.692 108.111 128.639 108.88 127.491 109.623ZM133.183 102.764C131.996 104.39 130.388 105.94 128.414 107.399C131.364 100.008 133.127 92.7575 133.703 85.5799C136.564 83.9019 138.716 82.1075 140.111 80.2336C139.097 88.2486 136.706 95.8406 133.183 102.764ZM14.5054 107.339C12.5691 105.899 10.9905 104.371 9.81977 102.769C6.29564 95.8444 3.90366 88.2507 2.8892 80.2337C4.27406 82.0945 6.40599 83.8768 9.2376 85.5447C9.80906 92.7144 11.5643 99.9572 14.5054 107.339ZM81.25 3.01815C86.958 3.82709 92.4441 5.33559 97.6183 7.45381C97.9283 7.79408 98.086 8.12158 98.086 8.43087C98.086 9.3719 96.8521 10.3485 94.6179 11.231C87.7377 7.37368 80.8341 5.1181 74.3685 3.21758C75.827 3.09679 77.5461 3.07718 79.0367 3.06053L79.416 3.05532C80.0817 3.04632 80.7057 3.03788 81.2379 3.01864L81.25 3.01815ZM99.4189 8.43087C99.4189 9.82698 98.153 11.0327 96.0178 12.0386C102.707 16.0089 109.345 21.5758 115.505 29.8877C118.964 28.0688 120.841 26.0822 120.841 24.1382C120.841 23.6897 120.745 23.2382 120.554 22.789C114.513 16.7045 107.352 11.7339 99.409 8.21663C99.4156 8.28777 99.4189 8.35919 99.4189 8.43087ZM78.3386 5.8202C83.0783 7.33765 87.9905 9.18475 92.9022 11.829C91.5517 12.2472 89.9621 12.634 88.163 12.973C84.8723 9.9271 81.5517 7.65536 78.3386 5.8202ZM94.4472 12.6877C92.9809 13.2232 91.2476 13.6894 89.327 14.0847C90.6255 15.364 91.9168 16.7708 93.1923 18.326C96.8482 22.7817 100.04 28.0444 102.794 34.1812C107.456 33.1321 111.328 31.8714 114.276 30.4962C108.008 22.1102 101.245 16.5878 94.4472 12.6877ZM73.4214 4.7483C77.7604 6.8872 82.1934 9.49957 86.4749 13.2668C83.8753 13.6839 80.9093 14.0045 77.6503 14.1879C76.2582 9.97058 74.8385 7.02496 73.4214 4.7483ZM71.3477 14.3611C73.0494 14.3611 74.6954 14.3247 76.2779 14.2562C74.6929 9.55007 73.0764 6.51571 71.4735 4.21335C69.8696 6.51816 68.2521 9.5554 66.6662 14.2666C68.1722 14.3284 69.7349 14.3611 71.3477 14.3611ZM69.5283 4.74492C68.1097 7.02448 66.6879 9.97479 65.2936 14.2014C62.0248 14.0251 59.0463 13.7109 56.431 13.2993C60.7261 9.51265 65.1747 6.89063 69.5283 4.74492ZM64.6208 5.80979C61.3889 7.65427 58.0487 9.93992 54.739 13.0104C52.9224 12.6746 51.3144 12.2903 49.9449 11.874C54.8942 9.19935 59.8452 7.33739 64.6208 5.80979ZM53.5733 14.1264C51.6341 13.7352 49.8806 13.2724 48.3929 12.74C41.6324 16.6345 34.9096 22.1399 28.676 30.4771C31.6189 31.8554 35.4909 33.1193 40.1547 34.1714C42.9074 28.0387 46.0967 22.7794 49.7506 18.326C51.0123 16.7877 52.2892 15.3946 53.5733 14.1264ZM68.5537 3.21968C62.0607 5.12844 55.1275 7.39639 48.2206 11.2851C45.896 10.3881 44.6093 9.3905 44.6093 8.43087C44.6093 8.18037 44.7123 7.917 44.9161 7.6471C50.2167 5.43141 55.8498 3.85745 61.7175 3.0229C62.3472 3.04545 63.1041 3.05678 63.9062 3.06434C65.3897 3.08091 67.0996 3.10041 68.5537 3.21968ZM43.2764 8.43087C43.2764 8.40627 43.2768 8.38169 43.2776 8.35714C35.4544 11.8685 28.3974 16.7928 22.4332 22.8031C22.248 23.2476 22.1515 23.6944 22.1515 24.1382C22.1515 26.0752 24.0151 28.0545 27.4499 29.868C33.5722 21.6111 40.1653 16.0646 46.8122 12.1012C44.5957 11.0829 43.2764 9.85608 43.2764 8.43087ZM20.8348 24.4681C14.972 30.7807 10.2709 38.1867 7.07561 46.3421C7.01635 46.6587 6.98671 46.9761 6.98671 47.2916C6.98671 50.1279 9.3979 52.9562 13.853 55.5196C17.7184 45.4207 22.0461 37.3977 26.6546 30.9597C23.0877 29.0293 21.0121 26.8268 20.8348 24.4681ZM27.8676 31.5782C23.2418 37.9936 18.9002 46.0198 15.0312 56.1663C17.874 57.6569 21.423 59.047 25.6019 60.2832C27.5452 60.8578 29.5903 61.3914 31.7254 61.8826C33.7561 51.7174 36.3659 42.9368 39.6037 35.4241C34.9205 34.3585 30.9413 33.0574 27.8676 31.5782ZM103.345 35.4341C106.583 42.948 109.192 51.73 111.221 61.8968C113.378 61.4016 115.444 60.8633 117.406 60.2832C121.557 59.0563 125.087 57.6764 127.92 56.1965C124.052 46.0457 119.71 38.016 115.084 31.5978C112.006 33.0735 108.026 34.3713 103.345 35.4341ZM116.301 30.9798C120.909 37.4208 125.237 45.4475 129.102 55.5506C133.59 52.9792 136.021 50.1388 136.021 47.2916C136.021 46.9886 135.994 46.6856 135.941 46.3826C132.744 38.2074 128.034 30.7841 122.158 24.4591C121.985 26.8294 119.895 29.0421 116.301 30.9798ZM140.66 71.5C140.66 73.1916 140.598 74.8691 140.478 76.5307C139.833 79.0905 137.542 81.6121 133.813 83.9442C134.316 74.8374 132.903 65.8404 129.579 56.8167C133.626 54.5313 136.16 52.0033 137.022 49.3475C139.38 56.3051 140.66 63.756 140.66 71.5ZM128.392 57.457C131.712 66.5358 133.056 75.5915 132.422 84.7684C129.307 86.518 125.363 88.1458 120.685 89.584C118.842 90.1502 116.913 90.6808 114.908 91.1745C114.911 82.1619 113.419 73.2425 111.477 63.2045C113.678 62.7002 115.786 62.1513 117.787 61.5592C121.956 60.3269 125.507 58.9482 128.392 57.457ZM31.4683 63.1927C29.5277 73.2308 28.035 82.15 28.0359 91.162C26.0508 90.6718 24.1411 90.1455 22.3153 89.584C17.6075 88.1365 13.6437 86.4968 10.5194 84.7343C9.88875 75.5597 11.2364 66.5061 14.5577 57.4294C17.4535 58.932 21.0237 60.3212 25.221 61.563C27.2032 62.1489 29.2897 62.6926 31.4683 63.1927ZM13.3748 56.7881C10.0475 65.8074 8.63033 74.8017 9.12754 83.9061C5.43453 81.5847 3.16412 79.0765 2.52158 76.5306C2.40161 74.8691 2.34058 73.1915 2.34058 71.5C2.34058 63.7527 3.62097 56.2987 5.98121 49.3385C6.83622 51.9866 9.35255 54.5073 13.3748 56.7881Z" fill="black"/>
<path d="M66.6392 141.834L66.6529 141.635L66.629 141.633L66.6054 141.637L66.6392 141.834ZM76.3234 141.837L76.3525 141.639L76.3313 141.636L76.3098 141.637L76.3234 141.837ZM76.6158 141.816L76.6014 141.617L76.5797 141.618L76.5587 141.625L76.6158 141.816ZM84.2416 140.846L84.2625 140.647L84.2339 140.644L84.2055 140.649L84.2416 140.846ZM84.2872 140.849L84.28 141.049L84.2813 141.049L84.2872 140.849ZM84.298 140.85L84.2921 141.05L84.2962 141.05L84.298 140.85ZM84.3113 140.85L84.3094 141.05H84.3113V140.85ZM84.4636 140.831L84.5086 141.026L84.5087 141.026L84.4636 140.831ZM84.4768 140.828L84.4318 140.633L84.4317 140.633L84.4768 140.828ZM84.8871 140.733L84.9325 140.927L84.9327 140.927L84.8871 140.733ZM85.089 140.685L85.0505 140.489L85.0434 140.491L85.089 140.685ZM134.321 103.464L134.159 103.347L134.15 103.36L134.143 103.373L134.321 103.464ZM134.352 103.422L134.514 103.539L134.514 103.538L134.352 103.422ZM134.38 103.383L134.542 103.499L134.543 103.499L134.38 103.383ZM134.489 103.134L134.31 103.044L134.299 103.067L134.293 103.093L134.489 103.134ZM141.798 76.7573L141.604 76.7114L141.6 76.7268L141.599 76.7425L141.798 76.7573ZM141.92 74.72L141.72 74.711L141.718 74.7664L141.744 74.8153L141.92 74.72ZM137.225 46.0069L137.028 46.0461L137.032 46.0632L137.038 46.0794L137.225 46.0069ZM137.209 45.9318L137.013 45.9731L137.013 45.9733L137.209 45.9318ZM137.093 45.6723L136.907 45.7458L136.917 45.77L136.932 45.7909L137.093 45.6723ZM121.664 22.0178L121.486 22.1096L121.5 22.1366L121.522 22.1583L121.664 22.0178ZM121.387 21.7387L121.246 21.8799L121.267 21.9014L121.294 21.9155L121.387 21.7387ZM98.3573 6.31704L98.2387 6.47811L98.2584 6.49254L98.2809 6.50185L98.3573 6.31704ZM98.0654 6.19705L97.9898 6.38221L98.0122 6.39135L98.0361 6.3949L98.0654 6.19705ZM44.5377 6.36058L44.5463 6.5604L44.5817 6.55888L44.6145 6.54527L44.5377 6.36058ZM44.1125 6.53895L44.1904 6.72313L44.2232 6.70927L44.2491 6.68499L44.1125 6.53895ZM21.6191 21.7323L21.709 21.9109L21.7379 21.8964L21.7607 21.8735L21.6191 21.7323ZM21.3205 22.0335L21.4629 22.1739L21.4855 22.151L21.4997 22.1222L21.3205 22.0335ZM6.03972 45.3381L6.18139 45.4793L6.21017 45.4504L6.22535 45.4125L6.03972 45.3381ZM5.86706 45.6424L6.06077 45.6921L6.06084 45.6919L5.86706 45.6424ZM5.79263 45.9629L5.97897 46.0355L5.98506 46.0199L5.98846 46.0035L5.79263 45.9629ZM1.08024 74.7199L1.25608 74.8152L1.28255 74.7664L1.28004 74.7109L1.08024 74.7199ZM1.2017 76.7578L1.40115 76.743L1.39999 76.7272L1.39636 76.7119L1.2017 76.7578ZM8.50596 103.124L8.70202 103.084L8.69669 103.058L8.68456 103.034L8.50596 103.124ZM8.61668 103.379L8.45351 103.495L8.45368 103.495L8.61668 103.379ZM8.68166 103.47L8.85976 103.379L8.8528 103.365L8.84386 103.353L8.68166 103.47ZM23.8756 123.432L24.0495 123.334L24.034 123.306L24.0109 123.285L23.8756 123.432ZM24.0024 123.592L23.8662 123.739L23.8666 123.739L24.0024 123.592ZM25.5633 124.933L25.6939 124.781L25.6883 124.777L25.5633 124.933ZM57.5523 140.614L57.5987 140.419L57.5918 140.418L57.5523 140.614ZM58.4793 140.831L58.5343 140.638L58.5243 140.636L58.4793 140.831ZM58.6316 140.85V141.05H58.7143L58.7729 140.991L58.6316 140.85ZM58.6354 140.846V140.646H58.5527L58.4941 140.704L58.6354 140.846ZM58.7243 140.84L58.7605 140.643L58.7289 140.637L58.697 140.642L58.7243 140.84ZM66.3188 141.812L66.3799 141.621L66.3572 141.614L66.3334 141.612L66.3188 141.812ZM36.8115 131.322L36.888 131.137L36.7109 131.494L36.8115 131.322ZM46.2619 135.899L46.1887 136.086L46.3732 135.733L46.2619 135.899ZM43.3141 133.648L43.445 133.496L43.4131 133.469L43.3728 133.456L43.3141 133.648ZM41.1105 131.539L41.045 131.728L41.2556 131.401L41.1105 131.539ZM29.2755 125.959L29.1444 126.11L29.1552 126.12L29.1671 126.127L29.2755 125.959ZM32.5447 116.931L32.7332 116.864L32.6989 116.767L32.6003 116.739L32.5447 116.931ZM17.4489 110.806L17.5483 110.633L16.9997 110.318L17.2678 110.891L17.4489 110.806ZM28.8948 125.629L29.0262 125.478L29.0258 125.478L28.8948 125.629ZM28.8961 125.63L28.7647 125.781L28.765 125.781L28.8961 125.63ZM29.0237 125.741L28.8926 125.892L28.8933 125.892L29.0237 125.741ZM29.0244 125.741L29.1552 125.59L29.1548 125.59L29.0244 125.741ZM29.0258 125.743L29.1569 125.591L29.1566 125.591L29.0258 125.743ZM46.6276 134.59L46.6785 134.397L46.5141 134.755L46.6276 134.59ZM57.9567 139.336L57.9107 139.53L57.9176 139.532L57.9567 139.336ZM62.1791 137.309L62.3489 137.203L62.2964 137.119L62.1977 137.109L62.1791 137.309ZM64.5071 140.316L64.4871 140.515L65.0365 140.571L64.65 140.176L64.5071 140.316ZM61.3665 135.892L61.3461 136.091L61.7181 136.129L61.5433 135.799L61.3665 135.892ZM43.8929 132.442L43.7599 132.592L43.7927 132.621L43.8347 132.634L43.8929 132.442ZM57.2987 121.425L57.1002 121.45L57.1002 121.45L57.2987 121.425ZM57.2895 121.351L57.488 121.326L57.468 121.166L57.3069 121.152L57.2895 121.351ZM34.128 117.375L34.1805 117.182L33.804 117.079L33.9407 117.445L34.128 117.375ZM62.9673 136.043L62.7943 136.144L62.8465 136.233L62.9501 136.242L62.9673 136.043ZM58.6499 121.464L58.6655 121.264L58.4205 121.245L58.4515 121.489L58.6499 121.464ZM79.9561 136.081L79.9719 136.28L80.0761 136.272L80.1288 136.182L79.9561 136.081ZM84.2962 121.468L84.4946 121.493L84.5257 121.249L84.2807 121.268L84.2962 121.468ZM63.8661 137.452L63.8814 137.253L63.459 137.22L63.7025 137.567L63.8661 137.452ZM66.7394 140.505L66.6198 140.665L66.667 140.7L66.7258 140.704L66.7394 140.505ZM76.202 140.509L76.2154 140.708L76.2742 140.704L76.3215 140.669L76.202 140.509ZM79.0576 137.483L79.2211 137.599L79.4638 137.254L79.0437 137.284L79.0576 137.483ZM80.7387 137.352L80.7216 137.153L80.6221 137.162L80.5692 137.246L80.7387 137.352ZM78.4322 140.322L78.2894 140.182L77.903 140.576L78.4521 140.521L78.4322 140.322ZM95.9591 134.837L96.0701 135.004L95.91 134.643L95.9591 134.837ZM84.8091 139.382L84.8475 139.578L84.8547 139.577L84.8091 139.382ZM99.327 133.906L99.2694 133.714L99.2297 133.726L99.198 133.753L99.327 133.906ZM96.5996 135.954L96.4888 135.787L96.6724 136.14L96.5996 135.954ZM105.397 131.776L105.495 131.95L105.321 131.59L105.397 131.776ZM113.805 125.847L113.919 126.011L113.928 126.005L113.936 125.998L113.805 125.847ZM101.597 131.785L101.453 131.646L101.662 131.974L101.597 131.785ZM113.898 125.767L114.028 125.918L114.029 125.918L113.898 125.767ZM114.047 125.638L113.916 125.486L113.916 125.486L114.047 125.638ZM114.048 125.636L114.179 125.788L114.179 125.788L114.048 125.636ZM125.48 110.844L125.661 110.929L125.929 110.358L125.381 110.671L125.48 110.844ZM110.392 116.947L110.337 116.755L110.238 116.783L110.204 116.88L110.392 116.947ZM98.7772 132.688L98.8343 132.88L98.8757 132.868L98.9082 132.839L98.7772 132.688ZM81.552 135.942L81.3755 135.849L81.201 136.177L81.5709 136.142L81.552 135.942ZM108.815 117.389L109.002 117.459L109.139 117.093L108.763 117.196L108.815 117.389ZM85.6566 121.355L85.6393 121.156L85.4781 121.17L85.4582 121.331L85.6566 121.355ZM85.648 121.425L85.8465 121.45L85.8465 121.45L85.648 121.425ZM18.9181 116.382L18.7661 116.512L19.0885 116.277L18.9181 116.382ZM12.3583 107.324L12.4862 107.17L12.1874 107.428L12.3583 107.324ZM15.4312 109.575L15.6149 109.496L15.591 109.441L15.5403 109.408L15.4312 109.575ZM16.5215 108.724L16.3375 108.802L16.3617 108.859L16.4141 108.893L16.5215 108.724ZM32.0282 115.423L31.9709 115.615L32.3392 115.725L32.2179 115.36L32.0282 115.423ZM10.6495 86.336L10.7437 86.1595L10.4157 85.9844L10.4504 86.3546L10.6495 86.336ZM21.923 90.8561L21.9818 90.6649L21.9818 90.6649L21.923 90.8561ZM28.0477 92.5352L28.2477 92.5318L28.245 92.3775L28.0951 92.3409L28.0477 92.5352ZM33.5914 115.876L33.4022 115.941L33.4364 116.04L33.5374 116.068L33.5914 115.876ZM57.1254 120.004L57.1078 120.203L57.3532 120.225L57.3239 119.98L57.1254 120.004ZM29.3948 92.8557L29.44 92.6608L29.1892 92.6027L29.1949 92.86L29.3948 92.8557ZM38.7667 94.6903L38.7346 94.8877L39.2184 94.9664L38.9278 94.5717L38.7667 94.6903ZM37.6956 93.162L37.862 93.0511L37.8142 92.9794L37.7293 92.9649L37.6956 93.162ZM29.3769 91.4849L29.1769 91.4858L29.1776 91.6435L29.3312 91.6796L29.3769 91.4849ZM31.0496 73.0103L31.2471 73.0424L31.2504 73.0215L31.2494 73.0004L31.0496 73.0103ZM34.9416 53.6642L35.1218 53.7509L35.1306 53.7327L35.1355 53.7131L34.9416 53.6642ZM40.9058 35.7105L40.9474 35.5149L40.7872 35.4808L40.7222 35.6311L40.9058 35.7105ZM49.6108 37.193L49.5844 37.3913L49.6565 37.4009L49.7179 37.3619L49.6108 37.193ZM51.4677 36.085L51.5655 36.2594L52.0996 35.96L51.4917 35.8864L51.4677 36.085ZM41.4599 34.4558L41.2775 34.3736L41.1753 34.6003L41.4187 34.6515L41.4599 34.4558ZM55.1917 14.4291L55.2258 14.2321L55.1273 14.215L55.0545 14.2836L55.1917 14.4291ZM64.8774 15.5041L65.0685 15.5632L65.1439 15.3195L64.8892 15.3044L64.8774 15.5041ZM61.0614 32.2444L60.8643 32.2104L60.8117 32.5147L61.1109 32.4382L61.0614 32.2444ZM62.464 31.9128L62.5065 32.1082L62.6378 32.0797L62.661 31.9473L62.464 31.9128ZM66.2401 15.5759L66.2494 15.3761L66.0956 15.369L66.0493 15.5158L66.2401 15.5759ZM76.7037 15.5641L76.8945 15.504L76.8481 15.3568L76.694 15.3643L76.7037 15.5641ZM80.5229 32.1405L80.3258 32.1748L80.3483 32.3038L80.4754 32.3348L80.5229 32.1405ZM81.9323 32.5122L81.8777 32.7047L82.183 32.7912L82.1294 32.4784L81.9323 32.5122ZM78.0663 15.4891L78.054 15.2895L77.7999 15.3051L77.8752 15.5483L78.0663 15.4891ZM87.7124 14.3926L87.8494 14.2469L87.7764 14.1782L87.6776 14.1957L87.7124 14.3926ZM101.488 34.4652L101.529 34.6609L101.773 34.6098L101.67 34.383L101.488 34.4652ZM90.7041 36.1818L90.6812 35.9831L90.0719 36.0532L90.6054 36.3558L90.7041 36.1818ZM92.5572 37.3001L92.4493 37.4685L92.5104 37.5077L92.5824 37.4986L92.5572 37.3001ZM102.042 35.72L102.226 35.6406L102.161 35.4904L102.001 35.5243L102.042 35.72ZM109.48 60.04L109.284 60.0816L109.288 60.0947L109.48 60.04ZM110.749 66.4955L110.55 66.5178L110.551 66.5251L110.553 66.5323L110.749 66.4955ZM113.57 91.4961L113.615 91.6908L113.769 91.6548L113.77 91.497L113.57 91.4961ZM104.179 93.3489L104.147 93.1515L104.062 93.1655L104.013 93.237L104.179 93.3489ZM103.1 94.8708L102.939 94.7513L102.647 95.1437L103.13 95.0684L103.1 94.8708ZM113.552 92.8681L113.752 92.8725L113.757 92.6152L113.507 92.6732L113.552 92.8681ZM109.351 115.893L109.405 116.085L109.506 116.057L109.54 115.958L109.351 115.893ZM85.8205 120.009L85.6219 119.985L85.5927 120.23L85.838 120.208L85.8205 120.009ZM87.003 107.67L87.2025 107.684L87.2252 107.355L86.9229 107.487L87.003 107.67ZM85.6235 108.243L85.5504 108.056L85.4331 108.103L85.424 108.228L85.6235 108.243ZM84.4615 120.123L84.4773 120.322L84.6405 120.309L84.6601 120.146L84.4615 120.123ZM58.4846 120.118L58.2861 120.142L58.3056 120.305L58.4688 120.317L58.4846 120.118ZM57.3499 108.61L57.5494 108.596L57.5398 108.467L57.4182 108.422L57.3499 108.61ZM55.9708 108.081L56.046 107.895L55.7486 107.775L55.7713 108.095L55.9708 108.081ZM110.908 115.443L110.718 115.38L110.597 115.744L110.965 115.635L110.908 115.443ZM126.404 108.771L126.512 108.94L126.564 108.907L126.589 108.85L126.404 108.771ZM114.896 92.5489L114.849 92.3546L114.699 92.3911L114.696 92.5454L114.896 92.5489ZM121.077 90.8561L121.018 90.6649L121.018 90.6649L121.077 90.8561ZM132.291 86.3676L132.49 86.3863L132.525 86.0167L132.197 86.191L132.291 86.3676ZM123.879 116.619L123.709 116.513L124.03 116.749L123.879 116.619ZM127.491 109.623L127.382 109.455L127.332 109.488L127.307 109.544L127.491 109.623ZM130.645 107.319L130.816 107.422L130.517 107.165L130.645 107.319ZM128.414 107.399L128.228 107.324L127.967 107.977L128.532 107.56L128.414 107.399ZM133.183 102.764L133.344 102.882L133.354 102.869L133.361 102.855L133.183 102.764ZM133.703 85.5799L133.601 85.4074L133.512 85.4601L133.503 85.5639L133.703 85.5799ZM140.111 80.2336L140.309 80.2587L140.405 79.5036L139.95 80.1142L140.111 80.2336ZM9.81977 102.769L9.64153 102.86L9.64882 102.874L9.6583 102.887L9.81977 102.769ZM14.5054 107.339L14.3861 107.499L14.9524 107.92L14.6912 107.265L14.5054 107.339ZM2.8892 80.2337L3.04965 80.1143L2.59524 79.5037L2.69078 80.2588L2.8892 80.2337ZM9.2376 85.5447L9.43697 85.5288L9.42871 85.4252L9.33911 85.3724L9.2376 85.5447ZM97.6183 7.45381L97.7662 7.31912L97.7358 7.2858L97.6941 7.26872L97.6183 7.45381ZM81.25 3.01815L81.278 2.82013L81.2601 2.81758L81.2419 2.81831L81.25 3.01815ZM94.6179 11.231L94.5201 11.4054L94.603 11.4519L94.6913 11.417L94.6179 11.231ZM74.3685 3.21758L74.352 3.01826L74.3121 3.40946L74.3685 3.21758ZM79.0367 3.06053L79.0389 3.26052L79.0395 3.26052L79.0367 3.06053ZM79.416 3.05532L79.4132 2.85534L79.4132 2.85534L79.416 3.05532ZM81.2379 3.01864L81.2452 3.21851L81.246 3.21848L81.2379 3.01864ZM96.0178 12.0386L95.9326 11.8577L95.5917 12.0182L95.9157 12.2106L96.0178 12.0386ZM115.505 29.8877L115.345 30.0068L115.447 30.1445L115.598 30.0647L115.505 29.8877ZM120.554 22.789L120.738 22.7108L120.723 22.6754L120.696 22.6481L120.554 22.789ZM99.409 8.21663L99.49 8.03376L99.1782 7.89569L99.2098 8.23521L99.409 8.21663ZM92.9022 11.829L92.9614 12.0201L93.4169 11.879L92.997 11.6529L92.9022 11.829ZM78.3386 5.8202L78.3996 5.62973L78.2394 5.99387L78.3386 5.8202ZM88.163 12.973L88.0272 13.1198L88.1011 13.1882L88.2 13.1695L88.163 12.973ZM89.327 14.0847L89.2867 13.8888L88.9198 13.9642L89.1866 14.2271L89.327 14.0847ZM94.4472 12.6877L94.5467 12.5142L94.466 12.4679L94.3786 12.4999L94.4472 12.6877ZM93.1923 18.326L93.0377 18.4529L93.0377 18.4529L93.1923 18.326ZM102.794 34.1812L102.611 34.2631L102.678 34.4122L102.838 34.3764L102.794 34.1812ZM114.276 30.4962L114.36 30.6775L114.583 30.5735L114.436 30.3765L114.276 30.4962ZM86.4749 13.2668L86.5066 13.4643L86.9257 13.3971L86.607 13.1167L86.4749 13.2668ZM73.4214 4.7483L73.5099 4.56891L72.8814 4.25909L73.2516 4.85398L73.4214 4.7483ZM77.6503 14.1879L77.4604 14.2506L77.5085 14.3962L77.6616 14.3876L77.6503 14.1879ZM76.2779 14.2562L76.2865 14.456L76.5523 14.4445L76.4674 14.1923L76.2779 14.2562ZM71.4735 4.21335L71.6376 4.09908L71.4735 3.86326L71.3093 4.09911L71.4735 4.21335ZM66.6662 14.2666L66.4767 14.2027L66.3916 14.4554L66.658 14.4664L66.6662 14.2666ZM65.2936 14.2014L65.2828 14.4011L65.4356 14.4094L65.4835 14.2641L65.2936 14.2014ZM69.5283 4.74492L69.6981 4.85059L70.0682 4.25585L69.4399 4.56552L69.5283 4.74492ZM56.431 13.2993L56.2988 13.1493L55.9795 13.4307L56.3999 13.4969L56.431 13.2993ZM54.739 13.0104L54.7027 13.2071L54.8014 13.2253L54.875 13.157L54.739 13.0104ZM64.6208 5.80979L64.7199 5.98349L64.5599 5.6193L64.6208 5.80979ZM49.9449 11.874L49.8499 11.698L49.4282 11.9259L49.8868 12.0653L49.9449 11.874ZM48.3929 12.74L48.4603 12.5517L48.3732 12.5206L48.293 12.5667L48.3929 12.74ZM53.5733 14.1264L53.7138 14.2687L53.9812 14.0047L53.6128 13.9304L53.5733 14.1264ZM28.676 30.4771L28.5158 30.3574L28.3688 30.5541L28.5912 30.6582L28.676 30.4771ZM40.1547 34.1714L40.1107 34.3665L40.2702 34.4024L40.3372 34.2533L40.1547 34.1714ZM49.7506 18.326L49.9052 18.4529L49.9052 18.4529L49.7506 18.326ZM48.2206 11.2851L48.1486 11.4717L48.2365 11.5057L48.3187 11.4594L48.2206 11.2851ZM68.5537 3.21968L68.6101 3.41156L68.57 3.02035L68.5537 3.21968ZM44.9161 7.6471L44.8389 7.46257L44.7891 7.48343L44.7565 7.52658L44.9161 7.6471ZM61.7175 3.0229L61.7247 2.82302L61.7069 2.82239L61.6893 2.82489L61.7175 3.0229ZM63.9062 3.06434L63.9084 2.86436L63.9081 2.86435L63.9062 3.06434ZM43.2776 8.35714L43.4775 8.36348L43.4876 8.04364L43.1957 8.17468L43.2776 8.35714ZM22.4332 22.8031L22.2913 22.6622L22.2637 22.69L22.2486 22.7262L22.4332 22.8031ZM27.4499 29.868L27.3565 30.0449L27.5083 30.125L27.6105 29.9872L27.4499 29.868ZM46.8122 12.1012L46.9146 12.273L47.2413 12.0782L46.8957 11.9195L46.8122 12.1012ZM7.07561 46.3421L6.88939 46.2691L6.8825 46.2867L6.87903 46.3053L7.07561 46.3421ZM20.8348 24.4681L21.0342 24.4531L20.9999 23.9964L20.6883 24.332L20.8348 24.4681ZM13.853 55.5196L13.7533 55.6929L13.9561 55.8096L14.0398 55.591L13.853 55.5196ZM26.6546 30.9597L26.8172 31.0761L26.9492 30.8917L26.7498 30.7838L26.6546 30.9597ZM15.0312 56.1663L14.8443 56.095L14.781 56.2609L14.9383 56.3434L15.0312 56.1663ZM27.8676 31.5782L27.9543 31.398L27.8034 31.3253L27.7054 31.4612L27.8676 31.5782ZM25.6019 60.2832L25.5451 60.475L25.5452 60.475L25.6019 60.2832ZM31.7254 61.8826L31.6805 62.0775L31.8812 62.1237L31.9215 61.9218L31.7254 61.8826ZM39.6037 35.4241L39.7874 35.5033L39.8826 35.2825L39.6481 35.2291L39.6037 35.4241ZM111.221 61.8968L111.024 61.9359L111.065 62.1378L111.265 62.0917L111.221 61.8968ZM103.345 35.4341L103.3 35.2391L103.066 35.2923L103.161 35.5133L103.345 35.4341ZM117.406 60.2832L117.349 60.0914L117.349 60.0914L117.406 60.2832ZM127.92 56.1965L128.013 56.3738L128.171 56.2914L128.107 56.1252L127.92 56.1965ZM115.084 31.5978L115.246 31.4808L115.148 31.3451L114.997 31.4174L115.084 31.5978ZM129.102 55.5506L128.915 55.6221L128.998 55.8403L129.201 55.7242L129.102 55.5506ZM116.301 30.9798L116.206 30.8037L116.006 30.9115L116.138 31.0962L116.301 30.9798ZM135.941 46.3826L136.138 46.3479L136.134 46.3283L136.127 46.3098L135.941 46.3826ZM122.158 24.4591L122.305 24.323L121.992 23.9866L121.959 24.4445L122.158 24.4591ZM140.478 76.5307L140.672 76.5796L140.677 76.5626L140.678 76.5451L140.478 76.5307ZM133.813 83.9442L133.614 83.9332L133.592 84.3183L133.919 84.1138L133.813 83.9442ZM129.579 56.8167L129.48 56.6425L129.332 56.7262L129.391 56.8858L129.579 56.8167ZM137.022 49.3475L137.212 49.2833L137.018 48.7126L136.832 49.2857L137.022 49.3475ZM132.422 84.7684L132.52 84.9428L132.614 84.8899L132.621 84.7822L132.422 84.7684ZM128.392 57.457L128.58 57.3883L128.502 57.1751L128.301 57.2793L128.392 57.457ZM120.685 89.584L120.743 89.7751L120.743 89.7751L120.685 89.584ZM114.908 91.1745L114.708 91.1745L114.708 91.4298L114.956 91.3687L114.908 91.1745ZM111.477 63.2045L111.432 63.0096L111.244 63.0527L111.281 63.2425L111.477 63.2045ZM117.787 61.5592L117.73 61.3674L117.73 61.3674L117.787 61.5592ZM28.0359 91.162L27.9879 91.3561L28.2359 91.4174L28.2359 91.1619L28.0359 91.162ZM31.4683 63.1927L31.6647 63.2307L31.7013 63.041L31.513 62.9978L31.4683 63.1927ZM22.3153 89.584L22.3741 89.3928L22.3741 89.3928L22.3153 89.584ZM10.5194 84.7343L10.3199 84.748L10.3273 84.8555L10.4212 84.9085L10.5194 84.7343ZM14.5577 57.4294L14.6498 57.2519L14.448 57.1472L14.3699 57.3607L14.5577 57.4294ZM25.221 61.563L25.1643 61.7547L25.1644 61.7548L25.221 61.563ZM9.12754 83.9061L9.0211 84.0754L9.34832 84.2811L9.32724 83.8952L9.12754 83.9061ZM13.3748 56.7881L13.5625 56.8573L13.6213 56.6979L13.4735 56.6141L13.3748 56.7881ZM2.52158 76.5306L2.3221 76.545L2.32337 76.5625L2.32766 76.5795L2.52158 76.5306ZM5.98121 49.3385L6.17154 49.277L5.98587 48.702L5.79181 49.2743L5.98121 49.3385ZM71.5 141.8C69.8709 141.8 68.2546 141.744 66.6529 141.635L66.6256 142.034C68.2364 142.144 69.8618 142.2 71.5 142.2V141.8ZM76.3098 141.637C74.7203 141.745 73.1165 141.8 71.5 141.8V142.2C73.1255 142.2 74.7384 142.145 76.3369 142.036L76.3098 141.637ZM76.4204 141.644C76.3976 141.644 76.3749 141.642 76.3525 141.639L76.2943 142.035C76.336 142.041 76.3781 142.044 76.4204 142.044V141.644ZM76.4242 141.644H76.4204V142.044H76.4242V141.644ZM76.5587 141.625C76.5153 141.637 76.4701 141.644 76.4242 141.644V142.044C76.5071 142.044 76.5908 142.032 76.6728 142.008L76.5587 141.625ZM84.2055 140.649C81.7139 141.106 79.1766 141.431 76.6014 141.617L76.6302 142.016C79.22 141.829 81.7717 141.502 84.2777 141.043L84.2055 140.649ZM84.2944 140.649C84.2839 140.649 84.2733 140.648 84.2625 140.647L84.2207 141.045C84.2401 141.047 84.2599 141.048 84.28 141.049L84.2944 140.649ZM84.3039 140.65L84.2931 140.649L84.2813 141.049L84.2921 141.05L84.3039 140.65ZM84.3131 140.65L84.2999 140.65L84.2962 141.05L84.3094 141.05L84.3131 140.65ZM84.4186 140.636C84.3795 140.645 84.3418 140.65 84.3113 140.65V141.05C84.3798 141.05 84.4486 141.039 84.5086 141.026L84.4186 140.636ZM84.4317 140.633L84.4185 140.636L84.5087 141.026L84.522 141.022L84.4317 140.633ZM84.8418 140.538C84.7012 140.57 84.5645 140.602 84.4318 140.633L84.5219 141.023C84.6546 140.992 84.7916 140.96 84.9325 140.927L84.8418 140.538ZM85.0434 140.491L84.8416 140.538L84.9327 140.927L85.1345 140.88L85.0434 140.491ZM134.143 103.373C124.479 122.292 106.495 136.283 85.0505 140.489L85.1275 140.882C106.696 136.652 124.781 122.581 134.499 103.555L134.143 103.373ZM134.189 103.305L134.159 103.347L134.484 103.581L134.514 103.539L134.189 103.305ZM134.217 103.267L134.189 103.306L134.514 103.538L134.542 103.499L134.217 103.267ZM134.293 103.093C134.28 103.153 134.255 103.213 134.216 103.267L134.543 103.499C134.613 103.399 134.661 103.289 134.685 103.176L134.293 103.093ZM141.599 76.7425C140.903 86.1398 138.351 95.029 134.31 103.044L134.667 103.224C138.732 95.1632 141.298 86.223 141.998 76.7721L141.599 76.7425ZM141.8 75.0383C141.8 75.5998 141.734 76.1577 141.604 76.7114L141.993 76.8032C142.131 76.22 142.2 75.6313 142.2 75.0383H141.8ZM141.744 74.8153C141.78 74.881 141.8 74.9568 141.8 75.0383H142.2C142.2 74.889 142.162 74.7479 142.096 74.6248L141.744 74.8153ZM141.792 71.5C141.792 72.5761 141.768 73.6466 141.72 74.711L142.12 74.729C142.168 73.6586 142.192 72.5821 142.192 71.5H141.792ZM137.038 46.0794C140.108 53.9666 141.792 62.5401 141.792 71.5H142.192C142.192 62.4896 140.498 53.8669 137.411 45.9343L137.038 46.0794ZM137.013 45.9733C137.019 45.9976 137.024 46.0218 137.028 46.0461L137.421 45.9677C137.416 45.9418 137.41 45.9161 137.405 45.8904L137.013 45.9733ZM136.932 45.7909C136.971 45.8428 136.999 45.9041 137.013 45.9731L137.405 45.8906C137.378 45.7651 137.326 45.6512 137.254 45.5538L136.932 45.7909ZM121.522 22.1583C128.123 28.8514 133.396 36.8582 136.907 45.7458L137.279 45.5989C133.748 36.6603 128.445 28.6081 121.807 21.8774L121.522 22.1583ZM121.294 21.9155C121.374 21.9581 121.442 22.0241 121.486 22.1096L121.842 21.926C121.759 21.7652 121.631 21.6411 121.481 21.5619L121.294 21.9155ZM98.2809 6.50185C106.937 10.0827 114.729 15.3452 121.246 21.8799L121.529 21.5975C114.975 15.026 107.14 9.73361 98.4338 6.13223L98.2809 6.50185ZM98.0361 6.3949C98.1084 6.40561 98.178 6.43339 98.2387 6.47811L98.4759 6.15598C98.3609 6.07132 98.2296 6.01919 98.0947 5.99921L98.0361 6.3949ZM71.5 1.2C80.8664 1.2 89.8106 3.04183 97.9898 6.38221L98.141 6.0119C89.9148 2.65229 80.9193 0.8 71.5 0.8V1.2ZM44.6145 6.54527C52.9006 3.10182 61.9823 1.2 71.5 1.2V0.8C61.9286 0.8 52.7948 2.71262 44.461 6.1759L44.6145 6.54527ZM44.2491 6.68499C44.3328 6.60673 44.4384 6.56502 44.5463 6.5604L44.5292 6.16077C44.3292 6.16933 44.1318 6.247 43.9758 6.39291L44.2491 6.68499ZM21.7607 21.8735C28.1434 15.4751 35.7482 10.2968 44.1904 6.72313L44.0345 6.35477C35.544 9.9489 27.8961 15.1566 21.4775 21.591L21.7607 21.8735ZM21.4997 22.1222C21.5469 22.0269 21.6214 21.955 21.709 21.9109L21.5292 21.5536C21.3664 21.6355 21.228 21.7695 21.1412 21.9447L21.4997 22.1222ZM6.22535 45.4125C9.73342 36.6649 14.9511 28.78 21.4629 22.1739L21.178 21.8931C14.6296 28.5364 9.38225 36.4659 5.85409 45.2636L6.22535 45.4125ZM6.06084 45.6919C6.08226 45.608 6.12487 45.536 6.18139 45.4793L5.89806 45.1969C5.79249 45.3028 5.71291 45.4377 5.67327 45.5929L6.06084 45.6919ZM5.98846 46.0035C6.01002 45.8997 6.03412 45.7959 6.06077 45.6921L5.67335 45.5926C5.64517 45.7023 5.61964 45.8122 5.59681 45.9222L5.98846 46.0035ZM1.20766 71.5C1.20766 62.5235 2.89878 53.9348 5.97897 46.0355L5.6063 45.8902C2.50837 53.835 0.807658 62.4729 0.807658 71.5H1.20766ZM1.28004 74.7109C1.23196 73.6465 1.20766 72.576 1.20766 71.5H0.807658C0.807658 72.5821 0.832095 73.6585 0.880447 74.7289L1.28004 74.7109ZM1.2 75.0383C1.2 74.9567 1.22043 74.881 1.25608 74.8152L0.904403 74.6246C0.837645 74.7478 0.8 74.8889 0.8 75.0383H1.2ZM1.39636 76.7119C1.26577 76.158 1.2 75.6 1.2 75.0383H0.8C0.8 75.6315 0.869491 76.2203 1.00704 76.8037L1.39636 76.7119ZM8.68456 103.034C4.64659 95.0214 2.09693 86.136 1.40115 76.743L1.00225 76.7725C1.70199 86.2192 4.26628 95.1556 8.32736 103.214L8.68456 103.034ZM8.77985 103.264C8.74015 103.208 8.71458 103.147 8.70202 103.084L8.30991 103.163C8.33333 103.279 8.38097 103.393 8.45351 103.495L8.77985 103.264ZM8.84386 103.353C8.82232 103.323 8.80093 103.293 8.77968 103.263L8.45368 103.495C8.47548 103.526 8.4974 103.556 8.51946 103.587L8.84386 103.353ZM24.0109 123.285C17.8507 117.63 12.6989 110.893 8.85976 103.379L8.50356 103.561C12.3646 111.118 17.5456 117.893 23.7404 123.58L24.0109 123.285ZM24.1386 123.446C24.1021 123.412 24.0724 123.374 24.0495 123.334L23.7018 123.531C23.7447 123.607 23.7996 123.677 23.8662 123.739L24.1386 123.446ZM25.6883 124.777C25.1438 124.341 24.6266 123.897 24.1382 123.445L23.8666 123.739C24.3624 124.198 24.8869 124.648 25.4383 125.089L25.6883 124.777ZM57.5918 140.418C45.573 137.996 34.6537 132.497 25.6938 124.782L25.4328 125.085C34.4431 132.844 45.4247 138.374 57.5128 140.81L57.5918 140.418ZM58.5243 140.636C58.2343 140.569 57.9254 140.497 57.5987 140.419L57.5059 140.809C57.8341 140.887 58.1444 140.959 58.4342 141.026L58.5243 140.636ZM58.6316 140.65C58.5929 140.65 58.5635 140.647 58.5343 140.638L58.4243 141.023C58.5017 141.045 58.5713 141.05 58.6316 141.05V140.65ZM58.4941 140.704L58.4903 140.708L58.7729 140.991L58.7767 140.988L58.4941 140.704ZM58.697 140.642C58.6766 140.645 58.6561 140.646 58.6354 140.646V141.046C58.6747 141.046 58.7135 141.043 58.7517 141.038L58.697 140.642ZM66.3334 141.612C63.7688 141.425 61.2421 141.099 58.7605 140.643L58.6882 141.037C61.184 141.495 63.7251 141.823 66.3042 142.011L66.3334 141.612ZM66.5225 141.644C66.4757 141.644 66.4272 141.636 66.3799 141.621L66.2577 142.002C66.3435 142.029 66.4331 142.044 66.5225 142.044V141.644ZM66.5263 141.644H66.5225V142.044H66.5263V141.644ZM66.6054 141.637C66.5792 141.642 66.5528 141.644 66.5263 141.644V142.044C66.5756 142.044 66.6247 142.04 66.6731 142.031L66.6054 141.637ZM36.7109 131.494C39.7333 133.254 42.9 134.792 46.1887 136.086L46.3351 135.713C43.0655 134.427 39.9171 132.898 36.9122 131.149L36.7109 131.494ZM43.3728 133.456C41.1041 132.76 38.9341 131.984 36.888 131.137L36.735 131.506C38.7936 132.359 40.9756 133.139 43.2554 133.839L43.3728 133.456ZM46.3732 135.733C45.4 135.081 44.4193 134.341 43.445 133.496L43.1831 133.799C44.1703 134.654 45.1642 135.405 46.1506 136.066L46.3732 135.733ZM41.1759 131.35C36.6943 129.798 32.688 127.922 29.3839 125.791L29.1671 126.127C32.5037 128.279 36.5402 130.168 41.045 131.728L41.1759 131.35ZM32.3562 116.998C34.6785 123.546 37.7227 128.257 40.9654 131.677L41.2556 131.401C38.0546 128.026 35.0384 123.364 32.7332 116.864L32.3562 116.998ZM17.3495 110.98C21.4982 113.356 26.6332 115.429 32.4891 117.123L32.6003 116.739C26.7663 115.051 21.6624 112.989 17.5483 110.633L17.3495 110.98ZM29.0258 125.478C25.4624 122.388 21.4729 118.929 17.63 110.721L17.2678 110.891C21.1454 119.173 25.1832 122.675 28.7637 125.78L29.0258 125.478ZM29.0275 125.479L29.0262 125.478L28.7633 125.78L28.7647 125.781L29.0275 125.479ZM29.1548 125.59L29.0272 125.479L28.765 125.781L28.8926 125.892L29.1548 125.59ZM29.1548 125.59L29.1541 125.589L28.8933 125.892L28.894 125.893L29.1548 125.59ZM29.1566 125.591L29.1552 125.59L28.8937 125.893L28.8951 125.894L29.1566 125.591ZM29.4066 125.808L29.1569 125.591L28.8947 125.894L29.1444 126.11L29.4066 125.808ZM46.5141 134.755C50.7759 137.693 54.9566 138.832 57.9107 139.53L58.0027 139.141C55.0637 138.447 50.9411 137.321 46.7412 134.426L46.5141 134.755ZM62.1977 137.109C56.8064 136.606 51.5579 135.679 46.6785 134.397L46.5768 134.784C51.4782 136.072 56.7483 137.002 62.1605 137.508L62.1977 137.109ZM64.65 140.176C63.9222 139.433 63.1343 138.464 62.3489 137.203L62.0093 137.414C62.8098 138.699 63.6156 139.692 64.3643 140.456L64.65 140.176ZM57.9176 139.532C60.0734 139.961 62.2649 140.291 64.4871 140.515L64.5272 140.117C62.3179 139.894 60.1391 139.567 57.9958 139.139L57.9176 139.532ZM61.3869 135.693C55.2441 135.064 49.3159 133.882 43.9511 132.251L43.8347 132.634C49.2258 134.273 55.1794 135.459 61.3461 136.091L61.3869 135.693ZM57.1002 121.45C57.9323 128.151 59.4989 132.788 61.1897 135.986L61.5433 135.799C59.8796 132.652 58.3245 128.063 57.4972 121.4L57.1002 121.45ZM57.091 121.376L57.1002 121.45L57.4972 121.4L57.488 121.326L57.091 121.376ZM34.0756 117.568C41.0036 119.451 48.8718 120.818 57.2721 121.55L57.3069 121.152C48.9272 120.421 41.0827 119.058 34.1805 117.182L34.0756 117.568ZM44.0259 132.293C40.4409 129.103 36.967 124.391 34.3153 117.305L33.9407 117.445C36.613 124.587 40.1219 129.354 43.7599 132.592L44.0259 132.293ZM63.1402 135.943C61.4179 132.978 59.7355 128.418 58.8483 121.438L58.4515 121.489C59.3438 128.509 61.0394 133.122 62.7943 136.144L63.1402 135.943ZM71.5 136.213C68.6455 136.213 65.796 136.086 62.9845 135.844L62.9501 136.242C65.7728 136.486 68.6338 136.613 71.5 136.613V136.213ZM79.9403 135.882C77.1791 136.1 74.3579 136.213 71.5 136.213V136.613C74.3684 136.613 77.2001 136.5 79.9719 136.28L79.9403 135.882ZM84.0979 121.442C83.2047 128.449 81.5123 133.017 79.7834 135.98L80.1288 136.182C81.8908 133.162 83.5964 128.54 84.4946 121.493L84.0979 121.442ZM71.5 122.162C75.8619 122.162 80.1487 121.992 84.3118 121.667L84.2807 121.268C80.128 121.593 75.8515 121.762 71.5 121.762V122.162ZM58.6342 121.663C62.8142 121.991 67.1192 122.162 71.5 122.162V121.762C67.1296 121.762 62.8351 121.591 58.6655 121.264L58.6342 121.663ZM63.8509 137.651C66.3823 137.845 68.9396 137.946 71.5 137.946V137.546C68.95 137.546 66.4029 137.446 63.8814 137.253L63.8509 137.651ZM66.859 140.345C66.0553 139.745 65.0583 138.802 64.0298 137.337L63.7025 137.567C64.7549 139.066 65.7814 140.04 66.6198 140.665L66.859 140.345ZM71.5 140.467C69.9046 140.467 68.3217 140.412 66.753 140.305L66.7258 140.704C68.3035 140.812 69.8955 140.867 71.5 140.867V140.467ZM76.1885 140.309C74.639 140.414 73.0756 140.467 71.5 140.467V140.867C73.0846 140.867 74.657 140.814 76.2154 140.708L76.1885 140.309ZM78.8942 137.368C77.8716 138.818 76.8813 139.753 76.0825 140.348L76.3215 140.669C77.1549 140.048 78.1746 139.083 79.2211 137.599L78.8942 137.368ZM71.5 137.946C74.0567 137.946 76.5859 137.856 79.0716 137.683L79.0437 137.284C76.5673 137.457 74.0474 137.546 71.5 137.546V137.946ZM80.5692 137.246C79.7904 138.489 79.0101 139.447 78.2894 140.182L78.575 140.462C79.3165 139.706 80.1145 138.726 80.9082 137.458L80.5692 137.246ZM95.91 134.643C91.1812 135.842 86.0633 136.694 80.7216 137.153L80.7558 137.552C86.1176 137.091 91.257 136.235 96.0083 135.031L95.91 134.643ZM84.8547 139.577C87.7338 138.902 91.846 137.82 96.0701 135.004L95.8482 134.671C91.6852 137.446 87.6298 138.515 84.7634 139.187L84.8547 139.577ZM78.4521 140.521C80.6144 140.305 82.7477 139.989 84.8475 139.578L84.7707 139.186C82.6831 139.594 80.5621 139.908 78.4123 140.123L78.4521 140.521ZM99.198 133.753C98.2955 134.514 97.3888 135.189 96.4888 135.787L96.7103 136.12C97.6225 135.514 98.5415 134.83 99.456 134.058L99.198 133.753ZM105.321 131.59C103.409 132.368 101.386 133.077 99.2694 133.714L99.3846 134.097C101.513 133.457 103.547 132.743 105.472 131.961L105.321 131.59ZM96.6724 136.14C99.7237 134.947 102.671 133.545 105.495 131.95L105.298 131.601C102.49 133.187 99.5604 134.582 96.5268 135.768L96.6724 136.14ZM113.692 125.682C110.342 127.992 106.217 129.985 101.532 131.596L101.662 131.974C106.374 130.354 110.532 128.347 113.919 126.011L113.692 125.682ZM113.767 125.616L113.675 125.696L113.936 125.998L114.028 125.918L113.767 125.616ZM113.916 125.486L113.767 125.616L114.029 125.918L114.178 125.789L113.916 125.486ZM113.917 125.485L113.916 125.486L114.178 125.789L114.179 125.788L113.917 125.485ZM125.299 110.759C121.46 118.945 117.476 122.399 113.917 125.485L114.179 125.788C117.755 122.687 121.788 119.189 125.661 110.929L125.299 110.759ZM110.448 117.139C116.296 115.451 121.428 113.386 125.579 111.018L125.381 110.671C121.264 113.019 116.163 115.073 110.337 116.755L110.448 117.139ZM101.74 131.924C105.069 128.488 108.203 123.714 110.581 117.014L110.204 116.88C107.843 123.53 104.738 128.255 101.453 131.646L101.74 131.924ZM98.7201 132.497C93.4919 134.055 87.6755 135.162 81.5332 135.743L81.5709 136.142C87.7364 135.558 93.5787 134.446 98.8343 132.88L98.7201 132.497ZM108.628 117.318C105.909 124.58 102.327 129.346 98.6462 132.537L98.9082 132.839C102.643 129.6 106.262 124.777 109.002 117.459L108.628 117.318ZM85.6739 121.555C94.0712 120.825 101.938 119.461 108.867 117.582L108.763 117.196C101.859 119.068 94.016 120.428 85.6393 121.156L85.6739 121.555ZM85.8465 121.45L85.8551 121.38L85.4582 121.331L85.4495 121.401L85.8465 121.45ZM81.7286 136.036C83.4302 132.837 85.01 128.186 85.8465 121.45L85.4495 121.4C84.6178 128.099 83.0497 132.7 81.3755 135.849L81.7286 136.036ZM19.0701 116.252C16.6571 113.429 14.4675 110.409 12.5292 107.22L12.1874 107.428C14.1369 110.635 16.3391 113.672 18.7661 116.512L19.0701 116.252ZM15.2475 109.654C16.4015 112.337 17.5733 114.577 18.7477 116.487L19.0885 116.277C17.925 114.386 16.762 112.163 15.6149 109.496L15.2475 109.654ZM12.2304 107.478C13.1672 108.257 14.2001 109.013 15.3221 109.743L15.5403 109.408C14.4299 108.685 13.4097 107.939 12.4862 107.17L12.2304 107.478ZM16.4141 108.893C20.5067 111.501 25.8051 113.773 31.9709 115.615L32.0854 115.232C25.943 113.397 20.6814 111.138 16.629 108.555L16.4141 108.893ZM10.4504 86.3546C11.1415 93.7327 13.1039 101.191 16.3375 108.802L16.7056 108.646C13.4862 101.068 11.5355 93.6496 10.8486 86.3173L10.4504 86.3546ZM21.9818 90.6649C17.5642 89.3069 13.8028 87.7925 10.7437 86.1595L10.5553 86.5124C13.6426 88.1605 17.429 89.6839 21.8643 91.0472L21.9818 90.6649ZM28.0951 92.3409C25.9696 91.8226 23.9284 91.2635 21.9818 90.6649L21.8642 91.0472C23.819 91.6483 25.8678 92.2095 28.0003 92.7295L28.0951 92.3409ZM32.2179 115.36C29.5111 107.219 28.3731 99.8251 28.2477 92.5318L27.8477 92.5387C27.9738 99.8716 29.1185 107.306 31.8384 115.486L32.2179 115.36ZM33.5374 116.068C40.5118 118.024 48.5189 119.446 57.1078 120.203L57.1429 119.805C48.5751 119.049 40.5928 117.631 33.6454 115.683L33.5374 116.068ZM29.1949 92.86C29.3556 100.227 30.566 107.7 33.4022 115.941L33.7805 115.811C30.9578 107.61 29.7546 100.178 29.5948 92.8513L29.1949 92.86ZM38.7989 94.4929C35.5419 93.9625 32.4133 93.3506 29.44 92.6608L29.3496 93.0505C32.3323 93.7424 35.4696 94.356 38.7346 94.8877L38.7989 94.4929ZM38.9278 94.5717C38.5611 94.0735 38.2057 93.5665 37.862 93.0511L37.5292 93.273C37.8763 93.7936 38.2353 94.3057 38.6057 94.8088L38.9278 94.5717ZM29.3312 91.6796C31.9882 92.3035 34.7716 92.8641 37.6618 93.3592L37.7293 92.9649C34.8465 92.4711 32.071 91.9121 29.4226 91.2902L29.3312 91.6796ZM30.8522 72.9783C29.8185 79.3498 29.1502 85.3942 29.1769 91.4858L29.5769 91.484C29.5503 85.4226 30.2153 79.4019 31.2471 73.0424L30.8522 72.9783ZM31.2494 73.0004C31.2166 72.3378 31.2 71.6708 31.2 71H30.8C30.8 71.6774 30.8168 72.351 30.8499 73.0202L31.2494 73.0004ZM31.2 71C31.2 64.8198 32.6085 58.9691 35.1218 53.7509L34.7615 53.5774C32.2226 58.8485 30.8 64.7584 30.8 71H31.2ZM35.1355 53.7131C36.8858 46.7864 38.8918 40.8709 41.0894 35.7899L40.7222 35.6311C38.515 40.7345 36.5025 46.6706 34.7477 53.6152L35.1355 53.7131ZM40.8642 35.9061C43.5676 36.4806 46.4862 36.9789 49.5844 37.3913L49.6372 36.9948C46.5481 36.5836 43.6397 36.0869 40.9474 35.5149L40.8642 35.9061ZM49.7179 37.3619C50.3229 36.9783 50.9389 36.6106 51.5655 36.2594L51.3699 35.9105C50.737 36.2653 50.1148 36.6367 49.5037 37.0241L49.7179 37.3619ZM41.4187 34.6515C44.4615 35.2922 47.8147 35.8443 51.4436 36.2835L51.4917 35.8864C47.8732 35.4485 44.5315 34.8981 41.5011 34.2601L41.4187 34.6515ZM55.0545 14.2836C50.0885 18.964 45.3674 25.3035 41.2775 34.3736L41.6422 34.538C45.7125 25.5113 50.4043 19.216 55.3289 14.5747L55.0545 14.2836ZM64.8892 15.3044C61.4838 15.1034 58.1803 14.7438 55.2258 14.2321L55.1575 14.6262C58.1295 15.1409 61.4482 15.5019 64.8656 15.7037L64.8892 15.3044ZM61.2584 32.2785C62.4852 25.1813 63.764 19.7787 65.0685 15.5632L64.6864 15.445C63.3754 19.6813 62.093 25.1016 60.8643 32.2104L61.2584 32.2785ZM61.1109 32.4382C61.5729 32.3201 62.0381 32.21 62.5065 32.1082L62.4215 31.7174C61.9484 31.8202 61.4785 31.9313 61.0118 32.0507L61.1109 32.4382ZM62.661 31.9473C63.8784 24.9914 65.1435 19.726 66.4309 15.6359L66.0493 15.5158C64.7552 19.6273 63.4864 24.9107 62.267 31.8783L62.661 31.9473ZM66.2309 15.7757C67.9299 15.8544 69.6455 15.8942 71.3477 15.8942V15.4942C69.6517 15.4942 67.9423 15.4546 66.2494 15.3761L66.2309 15.7757ZM71.3477 15.8942C73.133 15.8942 74.9331 15.8504 76.7134 15.7638L76.694 15.3643C74.9201 15.4506 73.1266 15.4942 71.3477 15.4942V15.8942ZM76.513 15.6241C77.8155 19.7602 79.0952 25.0993 80.3258 32.1748L80.7199 32.1062C79.4873 25.019 78.2038 19.6617 76.8945 15.504L76.513 15.6241ZM80.4754 32.3348C80.9462 32.4498 81.4137 32.5731 81.8777 32.7047L81.9868 32.3198C81.5181 32.187 81.0459 32.0624 80.5703 31.9462L80.4754 32.3348ZM82.1294 32.4784C80.8855 25.2292 79.5862 19.7216 78.2573 15.43L77.8752 15.5483C79.1975 19.8187 80.4932 25.3085 81.7351 32.5461L82.1294 32.4784ZM78.0785 15.6888C81.4885 15.4794 84.7939 15.1112 87.7472 14.5896L87.6776 14.1957C84.7419 14.7141 81.4519 15.0809 78.054 15.2895L78.0785 15.6888ZM87.5754 14.5383C92.5157 19.1847 97.2232 25.492 101.306 34.5474L101.67 34.383C97.5683 25.2841 92.8314 18.9324 87.8494 14.2469L87.5754 14.5383ZM101.447 34.2695C98.2006 34.9513 94.5979 35.5327 90.6812 35.9831L90.7269 36.3805C94.6546 35.9288 98.2695 35.3456 101.529 34.6609L101.447 34.2695ZM90.6054 36.3558C91.2308 36.7104 91.8456 37.0815 92.4493 37.4685L92.6652 37.1318C92.0554 36.7409 91.4344 36.3661 90.8028 36.0078L90.6054 36.3558ZM92.5824 37.4986C95.9714 37.0686 99.1536 36.5367 102.084 35.9156L102.001 35.5243C99.0826 36.1429 95.9114 36.673 92.5321 37.1017L92.5824 37.4986ZM101.858 35.7993C104.7 42.3707 107.222 50.3372 109.284 60.0815L109.676 59.9986C107.609 50.2334 105.08 42.2407 102.226 35.6406L101.858 35.7993ZM109.288 60.0947C109.878 62.1715 110.304 64.3175 110.55 66.5178L110.948 66.4733C110.699 64.2509 110.269 62.0832 109.672 59.9854L109.288 60.0947ZM113.77 91.497C113.806 83.3642 112.604 75.315 110.946 66.4587L110.553 66.5323C112.209 75.3827 113.406 83.4016 113.37 91.4952L113.77 91.497ZM104.211 93.5463C107.487 93.0096 110.631 92.3899 113.615 91.6908L113.524 91.3013C110.549 91.9982 107.414 92.6162 104.147 93.1515L104.211 93.5463ZM104.013 93.237C103.667 93.7504 103.309 94.2553 102.939 94.7513L103.26 94.9903C103.633 94.4893 103.995 93.9793 104.345 93.4608L104.013 93.237ZM113.507 92.6732C110.206 93.4374 106.714 94.1056 103.069 94.6732L103.13 95.0684C106.785 94.4995 110.286 93.8295 113.597 93.0629L113.507 92.6732ZM109.54 115.958C112.378 107.714 113.59 100.24 113.752 92.8725L113.352 92.8637C113.191 100.191 111.986 107.624 109.162 115.828L109.54 115.958ZM85.838 120.208C94.424 119.454 102.429 118.037 109.405 116.085L109.297 115.7C102.349 117.644 94.368 119.058 85.803 119.81L85.838 120.208ZM86.8034 107.657C86.5287 111.638 86.1352 115.69 85.6219 119.985L86.0191 120.033C86.5331 115.732 86.9272 111.673 87.2025 107.684L86.8034 107.657ZM86.9229 107.487C86.4697 107.685 86.0121 107.875 85.5504 108.056L85.6967 108.429C86.1631 108.245 86.6253 108.054 87.0831 107.854L86.9229 107.487ZM84.6601 120.146C85.1588 116.008 85.546 112.095 85.823 108.257L85.424 108.228C85.1476 112.059 84.761 115.965 84.2629 120.099L84.6601 120.146ZM71.5 120.829C75.9237 120.829 80.2668 120.655 84.4773 120.322L84.4457 119.923C80.2458 120.255 75.9133 120.429 71.5 120.429V120.829ZM58.4688 120.317C62.6963 120.653 67.0576 120.829 71.5 120.829V120.429C67.068 120.429 62.7174 120.254 58.5005 119.919L58.4688 120.317ZM57.1505 108.625C57.4253 112.344 57.8035 116.137 58.2861 120.142L58.6832 120.094C58.2013 116.095 57.8237 112.308 57.5494 108.596L57.1505 108.625ZM57.4182 108.422C56.9567 108.255 56.4993 108.079 56.046 107.895L55.8956 108.266C56.3535 108.452 56.8156 108.629 57.2817 108.798L57.4182 108.422ZM57.3239 119.98C56.8277 115.835 56.4436 111.914 56.1703 108.066L55.7713 108.095C56.0451 111.95 56.4299 115.877 56.9268 120.028L57.3239 119.98ZM110.965 115.635C117.121 113.801 122.415 111.538 126.512 108.94L126.297 108.603C122.241 111.175 116.984 113.424 110.851 115.251L110.965 115.635ZM114.696 92.5454C114.569 99.8402 113.428 107.236 110.718 115.38L111.098 115.506C113.821 107.323 114.968 99.8869 115.096 92.5524L114.696 92.5454ZM121.018 90.6649C119.054 91.2688 116.995 91.8324 114.849 92.3546L114.944 92.7432C117.096 92.2194 119.164 91.6536 121.136 91.0472L121.018 90.6649ZM132.197 86.191C129.149 87.812 125.407 89.3157 121.018 90.6649L121.136 91.0472C125.542 89.6926 129.309 88.18 132.385 86.5442L132.197 86.191ZM126.589 108.85C129.829 101.233 131.796 93.7694 132.49 86.3863L132.092 86.3489C131.402 93.6862 129.446 101.109 126.22 108.693L126.589 108.85ZM124.049 116.725C125.265 114.775 126.479 112.475 127.675 109.702L127.307 109.544C126.119 112.3 124.914 114.582 123.709 116.513L124.049 116.725ZM130.474 107.215C128.481 110.494 126.222 113.596 123.727 116.488L124.03 116.749C126.539 113.84 128.811 110.721 130.816 107.422L130.474 107.215ZM127.6 109.791C128.753 109.044 129.814 108.271 130.773 107.472L130.517 107.165C129.571 107.952 128.524 108.716 127.382 109.455L127.6 109.791ZM128.532 107.56C130.519 106.092 132.143 104.528 133.344 102.882L133.021 102.646C131.849 104.252 130.257 105.788 128.295 107.238L128.532 107.56ZM133.503 85.5639C132.929 92.7194 131.172 99.9506 128.228 107.324L128.599 107.473C131.557 100.066 133.324 92.7955 133.902 85.5959L133.503 85.5639ZM139.95 80.1142C138.577 81.9595 136.449 83.7376 133.601 85.4074L133.804 85.7524C136.679 84.0661 138.855 82.2555 140.271 80.353L139.95 80.1142ZM133.361 102.855C136.894 95.9112 139.292 88.2971 140.309 80.2587L139.912 80.2085C138.901 88.2002 136.517 95.77 133.005 102.673L133.361 102.855ZM9.6583 102.887C10.8435 104.509 12.4377 106.051 14.3861 107.499L14.6247 107.178C12.7005 105.748 11.1375 104.233 9.98124 102.651L9.6583 102.887ZM2.69078 80.2588C3.70819 88.2991 6.10716 95.915 9.64153 102.86L9.99802 102.679C6.48412 95.7738 4.09912 88.2022 3.08762 80.2086L2.69078 80.2588ZM9.33911 85.3724C6.52153 83.7128 4.41338 81.9467 3.04965 80.1143L2.72876 80.3531C4.13474 82.2423 6.29044 84.0409 9.1361 85.7171L9.33911 85.3724ZM14.6912 107.265C11.7567 99.8997 10.0067 92.6765 9.43697 85.5288L9.03824 85.5606C9.61145 92.7523 11.3719 100.015 14.3196 107.413L14.6912 107.265ZM97.6941 7.26872C92.5048 5.14432 87.0027 3.63142 81.278 2.82013L81.2219 3.21617C86.9133 4.02275 92.3834 5.52685 97.5426 7.6389L97.6941 7.26872ZM98.286 8.43087C98.286 8.05181 98.0933 7.6782 97.7662 7.31912L97.4705 7.5885C97.7633 7.90997 97.886 8.19135 97.886 8.43087H98.286ZM94.6913 11.417C95.8175 10.9722 96.7052 10.4986 97.315 10.0088C97.9196 9.52317 98.286 8.99247 98.286 8.43087H97.886C97.886 8.81031 97.6354 9.23839 97.0645 9.69693C96.4989 10.1513 95.6525 10.6073 94.5444 11.0449L94.6913 11.417ZM74.3121 3.40946C80.7743 5.30899 87.6602 7.55953 94.5201 11.4054L94.7157 11.0565C87.8152 7.18783 80.8938 4.92721 74.4249 3.02569L74.3121 3.40946ZM79.0345 2.86055C77.5457 2.87717 75.819 2.89677 74.352 3.01826L74.385 3.41689C75.835 3.29681 77.5466 3.27718 79.0389 3.26052L79.0345 2.86055ZM79.4132 2.85534L79.034 2.86055L79.0395 3.26052L79.4187 3.25531L79.4132 2.85534ZM81.2307 2.81877C80.7012 2.83791 80.0797 2.84633 79.4132 2.85534L79.4187 3.25531C80.0838 3.24631 80.7102 3.23785 81.2452 3.21851L81.2307 2.81877ZM81.2419 2.81831L81.2299 2.8188L81.246 3.21848L81.2581 3.21799L81.2419 2.81831ZM96.103 12.2195C97.1823 11.7111 98.0561 11.1458 98.6626 10.5203C99.271 9.89284 99.6189 9.19502 99.6189 8.43087H99.2189C99.2189 9.06283 98.9339 9.66594 98.3755 10.2419C97.8152 10.8197 96.9885 11.3602 95.9326 11.8577L96.103 12.2195ZM115.666 29.7686C109.489 21.4346 102.831 15.85 96.1199 11.8666L95.9157 12.2106C102.583 16.1678 109.201 21.717 115.345 30.0068L115.666 29.7686ZM120.641 24.1382C120.641 25.0424 120.205 25.9787 119.324 26.9234C118.443 27.8682 117.13 28.8071 115.412 29.7107L115.598 30.0647C117.339 29.1493 118.694 28.1855 119.616 27.1962C120.539 26.207 121.041 25.1779 121.041 24.1382H120.641ZM120.37 22.8673C120.552 23.2938 120.641 23.7187 120.641 24.1382H121.041C121.041 23.6606 120.939 23.1826 120.738 22.7108L120.37 22.8673ZM99.328 8.39951C107.248 11.9066 114.389 16.8628 120.412 22.93L120.696 22.6481C114.638 16.5462 107.456 11.5613 99.49 8.03376L99.328 8.39951ZM99.6189 8.43087C99.6189 8.35301 99.6153 8.27538 99.6081 8.19805L99.2098 8.23521C99.2159 8.30015 99.2189 8.36537 99.2189 8.43087H99.6189ZM92.997 11.6529C88.0706 9.00072 83.1458 7.14926 78.3996 5.62973L78.2776 6.01068C83.0108 7.52604 87.9104 9.36878 92.8074 12.0051L92.997 11.6529ZM88.2 13.1695C90.0049 12.8295 91.6022 12.4409 92.9614 12.0201L92.843 11.638C91.5012 12.0535 89.9192 12.4386 88.126 12.7765L88.2 13.1695ZM78.2394 5.99387C81.442 7.823 84.7497 10.0861 88.0272 13.1198L88.2989 12.8262C84.995 9.76811 81.6615 7.48772 78.4378 5.64653L78.2394 5.99387ZM89.3673 14.2806C91.2944 13.884 93.0377 13.4153 94.5158 12.8756L94.3786 12.4999C92.924 13.031 91.2008 13.4949 89.2867 13.8888L89.3673 14.2806ZM93.347 18.1992C92.0669 16.6385 90.7709 15.2265 89.4673 13.9422L89.1866 14.2271C90.4801 15.5016 91.7666 16.9031 93.0377 18.4529L93.347 18.1992ZM102.976 34.0994C100.216 27.9488 97.0156 22.6705 93.3469 18.1992L93.0377 18.4529C96.6807 22.8929 99.8633 28.1399 102.611 34.2631L102.976 34.0994ZM114.191 30.315C111.261 31.6822 107.403 32.939 102.75 33.9861L102.838 34.3764C107.509 33.3252 111.396 32.0605 114.36 30.6775L114.191 30.315ZM94.3477 12.8612C101.123 16.7483 107.865 22.2528 114.115 30.616L114.436 30.3765C108.151 21.9676 101.367 16.4272 94.5467 12.5142L94.3477 12.8612ZM86.607 13.1167C82.3081 9.33407 77.8586 6.71263 73.5099 4.56891L73.333 4.92768C77.6622 7.06177 82.0788 9.66507 86.3428 13.417L86.607 13.1167ZM77.6616 14.3876C80.9267 14.2039 83.8995 13.8826 86.5066 13.4643L86.4432 13.0694C83.8511 13.4853 80.892 13.8052 77.6391 13.9882L77.6616 14.3876ZM73.2516 4.85398C74.6589 7.115 76.0724 10.0457 77.4604 14.2506L77.8403 14.1252C76.444 9.89544 75.018 6.93492 73.5912 4.64261L73.2516 4.85398ZM76.2692 14.0564C74.6897 14.1247 73.0466 14.1611 71.3477 14.1611V14.5611C73.0522 14.5611 74.7011 14.5246 76.2865 14.456L76.2692 14.0564ZM71.3094 4.32763C72.9 6.6123 74.5085 9.62917 76.0883 14.32L76.4674 14.1923C74.8773 9.47097 73.2529 6.41911 71.6376 4.09908L71.3094 4.32763ZM66.8558 14.3304C68.4365 9.63447 70.0461 6.61473 71.6377 4.32759L71.3093 4.09911C69.6932 6.4216 68.0677 9.47633 66.4767 14.2027L66.8558 14.3304ZM71.3477 14.1611C69.7376 14.1611 68.1777 14.1284 66.6744 14.0667L66.658 14.4664C68.1668 14.5283 69.7322 14.5611 71.3477 14.5611V14.1611ZM65.4835 14.2641C66.8737 10.0499 68.2893 7.1145 69.6981 4.85059L69.3585 4.63925C67.9302 6.93446 66.5021 9.89967 65.1036 14.1388L65.4835 14.2641ZM56.3999 13.4969C59.0226 13.9096 62.0079 14.2245 65.2828 14.4011L65.3043 14.0017C62.0416 13.8257 59.0699 13.5121 56.4621 13.1018L56.3999 13.4969ZM69.4399 4.56552C65.0764 6.71606 60.6114 9.34719 56.2988 13.1493L56.5633 13.4494C60.8409 9.6781 65.2729 7.06519 69.6167 4.92431L69.4399 4.56552ZM54.875 13.157C58.1714 10.0988 61.4986 7.82191 64.7199 5.98349L64.5217 5.63609C61.2791 7.48663 57.9259 9.78099 54.603 12.8638L54.875 13.157ZM49.8868 12.0653C51.2648 12.4842 52.8802 12.8702 54.7027 13.2071L54.7754 12.8138C52.9645 12.479 51.3641 12.0963 50.0031 11.6826L49.8868 12.0653ZM64.5599 5.6193C59.7777 7.149 54.814 9.01536 49.8499 11.698L50.04 12.0499C54.9745 9.38334 59.9127 7.52578 64.6817 6.00028L64.5599 5.6193ZM48.3255 12.9283C49.8248 13.4648 51.5882 13.9299 53.5337 14.3225L53.6128 13.9304C51.6801 13.5404 49.9364 13.0799 48.4603 12.5517L48.3255 12.9283ZM28.8362 30.5969C35.0527 22.2824 41.7547 16.7948 48.4927 12.9133L48.293 12.5667C41.5101 16.4741 34.7664 21.9974 28.5158 30.3574L28.8362 30.5969ZM40.1987 33.9763C35.544 32.9263 31.6868 31.6663 28.7608 30.296L28.5912 30.6582C31.5511 32.0444 35.4378 33.3123 40.1107 34.3665L40.1987 33.9763ZM49.596 18.1992C45.9292 22.6682 42.7311 27.9432 39.9723 34.0895L40.3372 34.2533C43.0838 28.1343 46.2642 22.8906 49.9052 18.4529L49.596 18.1992ZM53.4327 13.9841C52.1437 15.2572 50.8621 16.6555 49.5959 18.1992L49.9052 18.4529C51.1625 16.92 52.4347 15.532 53.7138 14.2687L53.4327 13.9841ZM48.3187 11.4594C55.2051 7.58219 62.1206 5.31932 68.6101 3.41156L68.4973 3.0278C62.0009 4.93757 55.0498 7.2106 48.1224 11.1109L48.3187 11.4594ZM44.4093 8.43087C44.4093 9.00362 44.7911 9.54443 45.4196 10.0387C46.0539 10.5375 46.9773 11.0197 48.1486 11.4717L48.2926 11.0985C47.1392 10.6535 46.257 10.1883 45.6668 9.72425C45.0708 9.25553 44.8093 8.81775 44.8093 8.43087H44.4093ZM44.7565 7.52658C44.5355 7.81924 44.4093 8.12397 44.4093 8.43087H44.8093C44.8093 8.23678 44.8891 8.01475 45.0757 7.76762L44.7565 7.52658ZM61.6893 2.82489C55.8045 3.66188 50.1551 5.24042 44.8389 7.46257L44.9932 7.83163C50.2784 5.62239 55.895 4.05303 61.7457 3.2209L61.6893 2.82489ZM63.9081 2.86435C63.1063 2.85679 62.3516 2.84548 61.7247 2.82302L61.7103 3.22277C62.3428 3.24542 63.102 3.25676 63.9043 3.26433L63.9081 2.86435ZM68.57 3.02035C67.1076 2.90039 65.3902 2.8809 63.9084 2.86436L63.9039 3.26433C65.3892 3.28091 67.0917 3.30043 68.5373 3.41901L68.57 3.02035ZM43.0777 8.3508C43.0768 8.37745 43.0764 8.40414 43.0764 8.43087H43.4764C43.4764 8.4084 43.4767 8.38593 43.4775 8.36348L43.0777 8.3508ZM22.5752 22.944C28.5223 16.9508 35.559 12.0408 43.3595 8.5396L43.1957 8.17468C35.3498 11.6963 28.2725 16.6347 22.2913 22.6622L22.5752 22.944ZM22.3515 24.1382C22.3515 23.7239 22.4415 23.3032 22.6178 22.88L22.2486 22.7262C22.0545 23.1921 21.9515 23.6649 21.9515 24.1382H22.3515ZM27.5432 29.6912C25.8371 28.7904 24.5337 27.8546 23.6592 26.9133C22.7846 25.9719 22.3515 25.0392 22.3515 24.1382H21.9515C21.9515 25.1742 22.4502 26.1996 23.3661 27.1855C24.2821 28.1715 25.6278 29.1321 27.3565 30.0449L27.5432 29.6912ZM46.7098 11.9294C40.0409 15.9059 33.4278 21.47 27.2892 29.7489L27.6105 29.9872C33.7165 21.7522 40.2896 16.2233 46.9146 12.273L46.7098 11.9294ZM43.0764 8.43087C43.0764 9.21106 43.439 9.9219 44.0711 10.5595C44.7013 11.1952 45.6089 11.7685 46.7287 12.283L46.8957 11.9195C45.7989 11.4156 44.9386 10.8664 44.3551 10.2778C43.7734 9.69108 43.4764 9.07589 43.4764 8.43087H43.0764ZM7.26183 46.4151C10.4478 38.2834 15.1353 30.8988 20.9813 24.6042L20.6883 24.332C14.8086 30.6627 10.094 38.09 6.88939 46.2691L7.26183 46.4151ZM7.18671 47.2916C7.18671 46.9887 7.21517 46.6835 7.2722 46.3789L6.87903 46.3053C6.81753 46.6338 6.78671 46.9636 6.78671 47.2916H7.18671ZM13.9527 55.3462C9.50654 52.7879 7.18671 50.0111 7.18671 47.2916H6.78671C6.78671 50.2447 9.28926 53.1244 13.7533 55.6929L13.9527 55.3462ZM26.492 30.8433C21.8721 37.2971 17.5368 45.3358 13.6662 55.4481L14.0398 55.591C17.9 45.5057 22.2201 37.4982 26.8172 31.0761L26.492 30.8433ZM20.6354 24.4831C20.821 26.9514 22.9823 29.1997 26.5594 31.1356L26.7498 30.7838C23.1932 28.8589 21.2033 26.7023 21.0342 24.4531L20.6354 24.4831ZM15.218 56.2375C19.0818 46.1048 23.4157 38.0944 28.0298 31.6951L27.7054 31.4612C23.0679 37.8928 18.7185 45.9349 14.8443 56.095L15.218 56.2375ZM25.6586 60.0914C21.4886 58.8579 17.9524 57.4722 15.124 55.9892L14.9383 56.3434C17.7956 57.8417 21.3575 59.2362 25.5451 60.475L25.6586 60.0914ZM31.7702 61.6877C29.6388 61.1973 27.5976 60.6647 25.6586 60.0914L25.5452 60.475C27.4927 61.0508 29.5419 61.5854 31.6805 62.0775L31.7702 61.6877ZM39.4201 35.345C36.1755 42.8734 33.562 51.668 31.5293 61.8434L31.9215 61.9218C33.9502 51.7667 36.5564 43.0001 39.7874 35.5033L39.4201 35.345ZM27.7809 31.7584C30.8724 33.2462 34.8671 34.5515 39.5594 35.6192L39.6481 35.2291C34.9739 34.1655 31.0102 32.8686 27.9543 31.398L27.7809 31.7584ZM111.417 61.8576C109.386 51.6807 106.773 42.8847 103.528 35.355L103.161 35.5133C106.392 43.0114 108.998 51.7793 111.024 61.9359L111.417 61.8576ZM117.349 60.0914C115.391 60.6702 113.33 61.2076 111.176 61.7018L111.265 62.0917C113.426 61.5957 115.496 61.0564 117.462 60.475L117.349 60.0914ZM127.828 56.0192C125.008 57.4916 121.491 58.8671 117.349 60.0914L117.462 60.475C121.622 59.2455 125.165 57.8612 128.013 56.3738L127.828 56.0192ZM114.922 31.7147C119.536 38.1168 123.87 46.1307 127.733 56.2677L128.107 56.1252C124.233 45.9608 119.884 37.9152 115.246 31.4808L114.922 31.7147ZM103.389 35.6292C108.08 34.5643 112.075 33.2624 115.17 31.7781L114.997 31.4174C111.938 32.8846 107.973 34.1783 103.3 35.2391L103.389 35.6292ZM129.289 55.4792C125.419 45.3626 121.083 37.3203 116.463 30.8634L116.138 31.0962C120.735 37.5214 125.055 45.5325 128.915 55.6221L129.289 55.4792ZM135.821 47.2916C135.821 50.0216 133.482 52.8106 129.002 55.3771L129.201 55.7242C133.698 53.1478 136.221 50.256 136.221 47.2916H135.821ZM135.744 46.4173C135.795 46.709 135.821 47.0004 135.821 47.2916H136.221C136.221 46.9768 136.193 46.6622 136.138 46.3479L135.744 46.4173ZM122.012 24.5952C127.871 30.9022 132.567 38.304 135.755 46.4555L136.127 46.3098C132.921 38.1107 128.198 30.6661 122.305 24.323L122.012 24.5952ZM116.395 31.1558C120 29.2128 122.176 26.9542 122.358 24.4737L121.959 24.4445C121.794 26.7047 119.79 28.8715 116.206 30.8037L116.395 31.1558ZM140.678 76.5451C140.798 74.8788 140.86 73.1964 140.86 71.5H140.46C140.46 73.1867 140.399 74.8595 140.279 76.5163L140.678 76.5451ZM133.919 84.1138C137.663 81.7722 140.008 79.2146 140.672 76.5796L140.285 76.4817C139.658 78.9663 137.421 81.452 133.707 83.7746L133.919 84.1138ZM129.391 56.8858C132.706 65.8855 134.115 74.8552 133.614 83.9332L134.013 83.9552C134.517 74.8195 133.099 65.7953 129.766 56.7475L129.391 56.8858ZM136.832 49.2857C135.992 51.8704 133.512 54.3661 129.48 56.6425L129.677 56.9908C133.74 54.6965 136.327 52.1362 137.213 49.4093L136.832 49.2857ZM140.86 71.5C140.86 63.7339 139.577 56.2613 137.212 49.2833L136.833 49.4117C139.184 56.349 140.46 63.7782 140.46 71.5H140.86ZM132.621 84.7822C133.258 75.5757 131.909 66.4919 128.58 57.3883L128.205 57.5257C131.515 66.5796 132.855 75.6073 132.222 84.7546L132.621 84.7822ZM120.743 89.7751C125.432 88.3341 129.389 86.7012 132.52 84.9428L132.324 84.594C129.225 86.3348 125.295 87.9575 120.626 89.3928L120.743 89.7751ZM114.956 91.3687C116.965 90.8741 118.897 90.3426 120.743 89.7751L120.626 89.3928C118.787 89.9578 116.862 90.4874 114.861 90.9803L114.956 91.3687ZM111.281 63.2425C113.223 73.2796 114.711 82.1826 114.708 91.1745L115.108 91.1746C115.111 82.1411 113.616 73.2053 111.673 63.1665L111.281 63.2425ZM117.73 61.3674C115.733 61.9582 113.63 62.5061 111.432 63.0096L111.522 63.3995C113.726 62.8943 115.838 62.3443 117.843 61.7509L117.73 61.3674ZM128.301 57.2793C125.429 58.7632 121.891 60.1376 117.73 61.3674L117.843 61.751C122.022 60.5161 125.585 59.1331 128.484 57.6347L128.301 57.2793ZM28.2359 91.1619C28.235 82.1708 29.7242 73.268 31.6647 63.2307L31.2719 63.1548C29.3311 73.1937 27.835 82.1293 27.8359 91.162L28.2359 91.1619ZM22.2565 89.7751C24.0861 90.3378 25.9995 90.8652 27.9879 91.3561L28.0838 90.9678C26.1021 90.4785 24.196 89.9531 22.3741 89.3928L22.2565 89.7751ZM10.4212 84.9085C13.5613 86.6799 17.5392 88.3247 22.2565 89.7751L22.3741 89.3928C17.6758 87.9482 13.7262 86.3136 10.6177 84.5601L10.4212 84.9085ZM14.3699 57.3607C11.0395 66.4622 9.68718 75.5438 10.3199 84.748L10.719 84.7205C10.0903 75.5756 11.4332 66.55 14.7455 57.4981L14.3699 57.3607ZM25.2778 61.3712C21.0891 60.132 17.5314 58.7471 14.6498 57.2519L14.4656 57.6069C17.3756 59.1169 20.9583 60.5105 25.1643 61.7547L25.2778 61.3712ZM31.513 62.9978C29.3381 62.4985 27.2556 61.9558 25.2777 61.3712L25.1644 61.7548C27.1508 62.3419 29.2414 62.8867 31.4235 63.3876L31.513 62.9978ZM9.32724 83.8952C8.83161 74.8197 10.244 65.8526 13.5625 56.8573L13.1872 56.7189C9.85099 65.7621 8.42905 74.7837 8.92784 83.917L9.32724 83.8952ZM2.32766 76.5795C2.98911 79.2003 5.31286 81.7444 9.0211 84.0754L9.23398 83.7368C5.5562 81.4249 3.33914 78.9526 2.7155 76.4816L2.32766 76.5795ZM2.14058 71.5C2.14058 73.1963 2.20178 74.8787 2.3221 76.545L2.72106 76.5162C2.60143 74.8595 2.54058 73.1867 2.54058 71.5H2.14058ZM5.79181 49.2743C3.42465 56.2548 2.14058 63.7305 2.14058 71.5H2.54058C2.54058 63.7749 3.81728 56.3425 6.17062 49.4027L5.79181 49.2743ZM13.4735 56.6141C9.46712 54.3424 7.00358 51.8541 6.17154 49.277L5.79089 49.3999C6.66885 52.1192 9.23797 54.6723 13.2762 56.9621L13.4735 56.6141Z" fill="black" mask="url(#path-1-outside-1_945_56)"/>
<mask id="path-3-outside-2_945_56" maskUnits="userSpaceOnUse" x="38.6372" y="49" width="64" height="38" fill="black">
<rect fill="white" x="38.6372" y="49" width="64" height="38"/>
<path fill-rule="evenodd" clip-rule="evenodd" d="M64.5461 66.8525H77.4473C82.0795 66.8525 85.8495 63.0717 85.8495 58.4262C85.8495 53.7808 82.0795 50 77.4473 50H64.5461C59.914 50 56.1439 53.7808 56.1439 58.4262C56.1439 63.0717 59.914 66.8525 64.5461 66.8525ZM73.3402 52.7904H77.4473C80.5432 52.7904 83.0592 55.3136 83.0592 58.4184C83.0592 61.5232 80.5432 64.0463 77.4473 64.0463H73.3402C75.5348 63.1267 77.0789 60.9494 77.0789 58.4184C77.0789 55.8874 75.5348 53.7101 73.3402 52.7904ZM64.5461 52.7904H68.6532C66.4586 53.7101 64.9145 55.8874 64.9145 58.4184C64.9145 60.9494 66.4586 63.1267 68.6532 64.0463H64.5461C61.4502 64.0463 58.9342 61.5232 58.9342 58.4184C58.9342 55.3136 61.4502 52.7904 64.5461 52.7904ZM48.0394 86.6368H60.9405C65.5727 86.6368 69.3428 82.856 69.3428 78.2105C69.3428 73.5651 65.5727 69.7843 60.9405 69.7843H48.0394C43.4072 69.7843 39.6372 73.5651 39.6372 78.2105C39.6372 82.856 43.4072 86.6368 48.0394 86.6368ZM56.8335 72.5747H60.9405C64.0365 72.5747 66.5525 75.0979 66.5525 78.2027C66.5525 81.3075 64.0365 83.8306 60.9405 83.8306H56.8335C59.0281 82.911 60.5722 80.7337 60.5722 78.2027C60.5722 75.6717 59.0281 73.4944 56.8335 72.5747ZM48.0394 72.5747H52.1465C49.9518 73.4944 48.4078 75.6717 48.4078 78.2027C48.4078 80.7337 49.9518 82.911 52.1465 83.8306H48.0394C44.9434 83.8306 42.4275 81.3075 42.4275 78.2027C42.4275 75.0979 44.9434 72.5747 48.0394 72.5747ZM81.0592 69.7764H93.9603C98.5925 69.7764 102.363 73.5572 102.363 78.2026C102.363 82.848 98.5925 86.6288 93.9603 86.6288H81.0592C76.427 86.6288 72.657 82.848 72.657 78.2026C72.657 73.5572 76.427 69.7764 81.0592 69.7764ZM81.0592 83.8384H85.1662C82.9716 82.9188 81.4276 80.7415 81.4276 78.2105C81.4276 75.6795 82.9716 73.5021 85.1662 72.5825H81.0592C77.9632 72.5825 75.4473 75.1056 75.4473 78.2105C75.4473 81.3153 77.9632 83.8384 81.0592 83.8384ZM89.8533 83.8384H93.9603C97.0563 83.8384 99.5723 81.3153 99.5723 78.2105C99.5723 75.1056 97.0563 72.5825 93.9603 72.5825H89.8533C92.0479 73.5021 93.5919 75.6795 93.5919 78.2105C93.5919 80.7415 92.0479 82.9188 89.8533 83.8384Z"/>
</mask>
<path fill-rule="evenodd" clip-rule="evenodd" d="M64.5461 66.8525H77.4473C82.0795 66.8525 85.8495 63.0717 85.8495 58.4262C85.8495 53.7808 82.0795 50 77.4473 50H64.5461C59.914 50 56.1439 53.7808 56.1439 58.4262C56.1439 63.0717 59.914 66.8525 64.5461 66.8525ZM73.3402 52.7904H77.4473C80.5432 52.7904 83.0592 55.3136 83.0592 58.4184C83.0592 61.5232 80.5432 64.0463 77.4473 64.0463H73.3402C75.5348 63.1267 77.0789 60.9494 77.0789 58.4184C77.0789 55.8874 75.5348 53.7101 73.3402 52.7904ZM64.5461 52.7904H68.6532C66.4586 53.7101 64.9145 55.8874 64.9145 58.4184C64.9145 60.9494 66.4586 63.1267 68.6532 64.0463H64.5461C61.4502 64.0463 58.9342 61.5232 58.9342 58.4184C58.9342 55.3136 61.4502 52.7904 64.5461 52.7904ZM48.0394 86.6368H60.9405C65.5727 86.6368 69.3428 82.856 69.3428 78.2105C69.3428 73.5651 65.5727 69.7843 60.9405 69.7843H48.0394C43.4072 69.7843 39.6372 73.5651 39.6372 78.2105C39.6372 82.856 43.4072 86.6368 48.0394 86.6368ZM56.8335 72.5747H60.9405C64.0365 72.5747 66.5525 75.0979 66.5525 78.2027C66.5525 81.3075 64.0365 83.8306 60.9405 83.8306H56.8335C59.0281 82.911 60.5722 80.7337 60.5722 78.2027C60.5722 75.6717 59.0281 73.4944 56.8335 72.5747ZM48.0394 72.5747H52.1465C49.9518 73.4944 48.4078 75.6717 48.4078 78.2027C48.4078 80.7337 49.9518 82.911 52.1465 83.8306H48.0394C44.9434 83.8306 42.4275 81.3075 42.4275 78.2027C42.4275 75.0979 44.9434 72.5747 48.0394 72.5747ZM81.0592 69.7764H93.9603C98.5925 69.7764 102.363 73.5572 102.363 78.2026C102.363 82.848 98.5925 86.6288 93.9603 86.6288H81.0592C76.427 86.6288 72.657 82.848 72.657 78.2026C72.657 73.5572 76.427 69.7764 81.0592 69.7764ZM81.0592 83.8384H85.1662C82.9716 82.9188 81.4276 80.7415 81.4276 78.2105C81.4276 75.6795 82.9716 73.5021 85.1662 72.5825H81.0592C77.9632 72.5825 75.4473 75.1056 75.4473 78.2105C75.4473 81.3153 77.9632 83.8384 81.0592 83.8384ZM89.8533 83.8384H93.9603C97.0563 83.8384 99.5723 81.3153 99.5723 78.2105C99.5723 75.1056 97.0563 72.5825 93.9603 72.5825H89.8533C92.0479 73.5021 93.5919 75.6795 93.5919 78.2105C93.5919 80.7415 92.0479 82.9188 89.8533 83.8384Z" fill="black"/>
<path d="M73.3402 52.7904V52.6928C73.2938 52.6928 73.2538 52.7256 73.2446 52.7712C73.2354 52.8167 73.2597 52.8624 73.3025 52.8804L73.3402 52.7904ZM73.3402 64.0463L73.3025 63.9564C73.2597 63.9743 73.2354 64.02 73.2446 64.0656C73.2538 64.1111 73.2938 64.1439 73.3402 64.1439V64.0463ZM68.6532 52.7904L68.6909 52.8804C68.7338 52.8624 68.758 52.8167 68.7488 52.7712C68.7397 52.7256 68.6997 52.6928 68.6532 52.6928V52.7904ZM68.6532 64.0463V64.1439C68.6997 64.1439 68.7397 64.1111 68.7488 64.0656C68.758 64.02 68.7338 63.9743 68.6909 63.9564L68.6532 64.0463ZM56.8335 72.5747V72.4772C56.787 72.4772 56.747 72.5099 56.7379 72.5555C56.7287 72.601 56.7529 72.6467 56.7958 72.6647L56.8335 72.5747ZM56.8335 83.8306L56.7958 83.7407C56.7529 83.7586 56.7287 83.8043 56.7379 83.8499C56.747 83.8954 56.787 83.9282 56.8335 83.9282V83.8306ZM52.1465 72.5747L52.1842 72.6647C52.227 72.6467 52.2513 72.601 52.2421 72.5555C52.2329 72.5099 52.1929 72.4772 52.1465 72.4772V72.5747ZM52.1465 83.8306V83.9282C52.1929 83.9282 52.2329 83.8954 52.2421 83.8499C52.2513 83.8043 52.227 83.7586 52.1842 83.7407L52.1465 83.8306ZM85.1662 83.8384V83.936C85.2127 83.936 85.2527 83.9032 85.2619 83.8577C85.271 83.8121 85.2468 83.7664 85.2039 83.7485L85.1662 83.8384ZM85.1662 72.5825L85.2039 72.6725C85.2468 72.6545 85.271 72.6088 85.2619 72.5633C85.2527 72.5177 85.2127 72.4849 85.1662 72.4849V72.5825ZM89.8533 83.8384L89.8156 83.7485C89.7727 83.7664 89.7485 83.8121 89.7576 83.8577C89.7668 83.9032 89.8068 83.936 89.8533 83.936V83.8384ZM89.8533 72.5825V72.4849C89.8068 72.4849 89.7668 72.5177 89.7576 72.5633C89.7485 72.6088 89.7727 72.6545 89.8156 72.6725L89.8533 72.5825ZM77.4473 66.7549H64.5461V66.95H77.4473V66.7549ZM85.7519 58.4262C85.7519 63.0181 82.0253 66.7549 77.4473 66.7549V66.95C82.1336 66.95 85.947 63.1253 85.947 58.4262H85.7519ZM77.4473 50.0976C82.0253 50.0976 85.7519 53.8344 85.7519 58.4262H85.947C85.947 53.7272 82.1336 49.9024 77.4473 49.9024V50.0976ZM64.5461 50.0976H77.4473V49.9024H64.5461V50.0976ZM56.2415 58.4262C56.2415 53.8344 59.9681 50.0976 64.5461 50.0976V49.9024C59.8598 49.9024 56.0464 53.7272 56.0464 58.4262H56.2415ZM64.5461 66.7549C59.9681 66.7549 56.2415 63.0181 56.2415 58.4262H56.0464C56.0464 63.1253 59.8598 66.95 64.5461 66.95V66.7549ZM77.4473 52.6928H73.3402V52.888H77.4473V52.6928ZM83.1568 58.4184C83.1568 55.2599 80.5974 52.6928 77.4473 52.6928V52.888C80.4891 52.888 82.9617 55.3672 82.9617 58.4184H83.1568ZM77.4473 64.1439C80.5974 64.1439 83.1568 61.5768 83.1568 58.4184H82.9617C82.9617 61.4696 80.4891 63.9488 77.4473 63.9488V64.1439ZM73.3402 64.1439H77.4473V63.9488H73.3402V64.1439ZM76.9814 58.4184C76.9814 60.9088 75.4621 63.0514 73.3025 63.9564L73.3779 64.1363C75.6076 63.202 77.1765 60.9899 77.1765 58.4184H76.9814ZM73.3025 52.8804C75.4621 53.7853 76.9814 55.9279 76.9814 58.4184H77.1765C77.1765 55.8468 75.6076 53.6348 73.3779 52.7004L73.3025 52.8804ZM68.6532 52.6928H64.5461V52.888H68.6532V52.6928ZM65.0121 58.4184C65.0121 55.9279 66.5314 53.7853 68.6909 52.8804L68.6155 52.7004C66.3858 53.6348 64.817 55.8468 64.817 58.4184H65.0121ZM68.6909 63.9564C66.5314 63.0514 65.0121 60.9088 65.0121 58.4184H64.817C64.817 60.9899 66.3858 63.202 68.6155 64.1363L68.6909 63.9564ZM64.5461 64.1439H68.6532V63.9488H64.5461V64.1439ZM58.8367 58.4184C58.8367 61.5768 61.3961 64.1439 64.5461 64.1439V63.9488C61.5043 63.9488 59.0318 61.4696 59.0318 58.4184H58.8367ZM64.5461 52.6928C61.3961 52.6928 58.8367 55.2599 58.8367 58.4184H59.0318C59.0318 55.3672 61.5043 52.888 64.5461 52.888V52.6928ZM60.9405 86.5392H48.0394V86.7343H60.9405V86.5392ZM69.2452 78.2105C69.2452 82.8024 65.5186 86.5392 60.9405 86.5392V86.7343C65.6269 86.7343 69.4403 82.9096 69.4403 78.2105H69.2452ZM60.9405 69.8819C65.5186 69.8819 69.2452 73.6187 69.2452 78.2105H69.4403C69.4403 73.5115 65.6269 69.6868 60.9405 69.6868V69.8819ZM48.0394 69.8819H60.9405V69.6868H48.0394V69.8819ZM39.7348 78.2105C39.7348 73.6187 43.4614 69.8819 48.0394 69.8819V69.6868C43.3531 69.6868 39.5397 73.5115 39.5397 78.2105H39.7348ZM48.0394 86.5392C43.4614 86.5392 39.7348 82.8024 39.7348 78.2105H39.5397C39.5397 82.9096 43.3531 86.7343 48.0394 86.7343V86.5392ZM60.9405 72.4772H56.8335V72.6723H60.9405V72.4772ZM66.65 78.2027C66.65 75.0442 64.0906 72.4772 60.9405 72.4772V72.6723C63.9824 72.6723 66.4549 75.1515 66.4549 78.2027H66.65ZM60.9405 83.9282C64.0906 83.9282 66.65 81.3611 66.65 78.2027H66.4549C66.4549 81.2539 63.9824 83.7331 60.9405 83.7331V83.9282ZM56.8335 83.9282H60.9405V83.7331H56.8335V83.9282ZM60.4746 78.2027C60.4746 80.6931 58.9553 82.8357 56.7958 83.7407L56.8712 83.9206C59.1009 82.9863 60.6697 80.7742 60.6697 78.2027H60.4746ZM56.7958 72.6647C58.9553 73.5696 60.4746 75.7122 60.4746 78.2027H60.6697C60.6697 75.6311 59.1009 73.4191 56.8712 72.4847L56.7958 72.6647ZM52.1465 72.4772H48.0394V72.6723H52.1465V72.4772ZM48.5053 78.2027C48.5053 75.7122 50.0246 73.5696 52.1842 72.6647L52.1087 72.4847C49.8791 73.4191 48.3102 75.6311 48.3102 78.2027H48.5053ZM52.1842 83.7407C50.0246 82.8357 48.5053 80.6931 48.5053 78.2027H48.3102C48.3102 80.7742 49.8791 82.9863 52.1087 83.9206L52.1842 83.7407ZM48.0394 83.9282H52.1465V83.7331H48.0394V83.9282ZM42.3299 78.2027C42.3299 81.3611 44.8893 83.9282 48.0394 83.9282V83.7331C44.9976 83.7331 42.525 81.2539 42.525 78.2027H42.3299ZM48.0394 72.4772C44.8893 72.4772 42.3299 75.0442 42.3299 78.2027H42.525C42.525 75.1515 44.9976 72.6723 48.0394 72.6723V72.4772ZM93.9603 69.6788H81.0592V69.8739H93.9603V69.6788ZM102.46 78.2026C102.46 73.5036 98.6467 69.6788 93.9603 69.6788V69.8739C98.5384 69.8739 102.265 73.6108 102.265 78.2026H102.46ZM93.9603 86.7264C98.6467 86.7264 102.46 82.9016 102.46 78.2026H102.265C102.265 82.7944 98.5384 86.5313 93.9603 86.5313V86.7264ZM81.0592 86.7264H93.9603V86.5313H81.0592V86.7264ZM72.5594 78.2026C72.5594 82.9016 76.3729 86.7264 81.0592 86.7264V86.5313C76.4812 86.5313 72.7545 82.7944 72.7545 78.2026H72.5594ZM81.0592 69.6788C76.3729 69.6788 72.5594 73.5036 72.5594 78.2026H72.7545C72.7545 73.6108 76.4812 69.8739 81.0592 69.8739V69.6788ZM85.1662 83.7409H81.0592V83.936H85.1662V83.7409ZM81.33 78.2105C81.33 80.782 82.8988 82.994 85.1285 83.9284L85.2039 83.7485C83.0444 82.8435 81.5251 80.7009 81.5251 78.2105H81.33ZM85.1285 72.4925C82.8988 73.4269 81.33 75.6389 81.33 78.2105H81.5251C81.5251 75.72 83.0444 73.5774 85.2039 72.6725L85.1285 72.4925ZM81.0592 72.68H85.1662V72.4849H81.0592V72.68ZM75.5448 78.2105C75.5448 75.1593 78.0174 72.68 81.0592 72.68V72.4849C77.9091 72.4849 75.3497 75.052 75.3497 78.2105H75.5448ZM81.0592 83.7409C78.0174 83.7409 75.5448 81.2617 75.5448 78.2105H75.3497C75.3497 81.3689 77.9091 83.936 81.0592 83.936V83.7409ZM93.9603 83.7409H89.8533V83.936H93.9603V83.7409ZM99.4747 78.2105C99.4747 81.2617 97.0022 83.7409 93.9603 83.7409V83.936C97.1104 83.936 99.6698 81.3689 99.6698 78.2105H99.4747ZM93.9603 72.68C97.0022 72.68 99.4747 75.1593 99.4747 78.2105H99.6698C99.6698 75.052 97.1104 72.4849 93.9603 72.4849V72.68ZM89.8533 72.68H93.9603V72.4849H89.8533V72.68ZM93.6895 78.2105C93.6895 75.6389 92.1207 73.4269 89.891 72.4925L89.8156 72.6725C91.9751 73.5774 93.4944 75.72 93.4944 78.2105H93.6895ZM89.891 83.9284C92.1207 82.994 93.6895 80.782 93.6895 78.2105H93.4944C93.4944 80.7009 91.9751 82.8435 89.8156 83.7485L89.891 83.9284Z" fill="black" mask="url(#path-3-outside-2_945_56)"/>
<circle cx="71.5" cy="71.5" r="39.5" stroke="black" stroke-width="2"/>
</svg>
